<?xml version="1.0"?>
<svg width="3174" height="770" xmlns="http://www.w3.org/2000/svg" xmlns:svg="http://www.w3.org/2000/svg" version="1.1">
 <g class="layer">
  <title>Layer 1</title>
  <path d="m94.31,163.73c1.35,0.01 1.35,0.01 2.72,0.01c0.95,0 1.9,0 2.89,0c3.22,-0.01 6.45,0 9.68,0c2.32,0 4.64,0 6.96,-0.01c5.74,-0.01 11.48,0 17.22,0c6.86,0.01 13.73,0 20.6,0c13.46,-0.01 26.92,-0.01 40.38,-0.01c11.77,0.01 23.55,0.01 35.33,0.01c0.78,0 1.56,0 2.36,0c3.17,0 6.33,0 9.5,0c29.72,-0.01 59.45,0 89.17,0.01c26.44,0.01 52.87,0 79.3,0c29.67,-0.02 59.33,-0.02 89,-0.01c3.16,0 6.33,0 9.49,0c0.77,0 1.55,0 2.35,0c11.78,0 23.55,0 35.32,-0.01c13.38,0 26.76,0 40.14,0.01c6.84,0.01 13.67,0.01 20.5,0c6.25,-0.01 12.49,0 18.74,0.01c2.27,0 4.54,0 6.81,-0.01c3.06,0 6.13,0 9.19,0.01c0.9,0 1.8,-0.01 2.72,-0.01c6.09,0.04 6.09,0.04 8.32,2.27c0.25,2.56 0.25,2.56 0.25,5.87c0,1.89 0,1.89 0.01,3.82c-0.01,1.41 -0.01,2.83 -0.02,4.24c0.01,1.49 0.01,2.98 0.01,4.47c0.01,4.1 0,8.21 -0.01,12.32c0,4.42 0,8.85 0.01,13.27c0,8.67 -0.01,17.35 -0.01,26.02c-0.02,10.09 -0.02,20.18 -0.01,30.27c0,18 -0.01,35.99 -0.03,53.99c-0.01,17.48 -0.02,34.97 -0.02,52.45c0,1.08 0,2.15 0,3.26c0,1.08 0,2.15 0,3.26c0,19.87 0,39.75 -0.01,59.63c-0.01,7.04 -0.01,14.08 -0.01,21.12c0,8.57 0,17.15 -0.01,25.73c-0.01,4.37 -0.01,8.75 -0.01,13.13c0,4 0,8.01 -0.01,12.01c0,1.45 0,2.91 0,4.36c0,1.97 0,3.93 0,5.9c-0.01,1.09 -0.01,2.19 -0.01,3.32c-0.12,2.56 -0.12,2.56 -1.12,4.56c-52.58,0.04 -105.16,0.08 -157.74,0.1c-6.2,0 -12.41,0 -18.61,0.01c-1.23,0 -2.47,0 -3.74,0c-20.01,0.01 -40.03,0.02 -60.04,0.04c-20.53,0.02 -41.05,0.03 -61.57,0.03c-12.68,0.01 -25.35,0.02 -38.03,0.03c-8.68,0.01 -17.36,0.02 -26.03,0.01c-5.02,0 -10.03,0 -15.05,0.01c-4.58,0.01 -9.17,0.01 -13.75,0.01c-1.67,0 -3.33,0 -5,0.01c-2.25,0 -4.5,0 -6.75,-0.01c-1.25,0 -2.51,0 -3.8,0c-2.89,-0.24 -2.89,-0.24 -4.89,-2.24c-0.25,-1.87 -0.25,-1.87 -0.25,-4.16c0,-0.86 0,-1.72 -0.01,-2.6c0.01,-1.39 0.01,-1.39 0.03,-2.81c0,-0.95 0,-1.9 0,-2.88c0,-2.01 0.01,-4.01 0.02,-6.02c0.02,-3.09 0.02,-6.17 0.02,-9.26c0.01,-1.95 0.01,-3.89 0.02,-5.84c0,-0.93 0,-1.86 0,-2.82c0.01,-0.85 0.01,-1.7 0.02,-2.59c0,-0.75 0.01,-1.51 0.01,-2.28c0.14,-1.74 0.14,-1.74 1.14,-2.74c6.91,0.35 13.15,2.06 19.76,4.06c16.8,4.87 34.89,1.13 50.08,-7.06c6.41,-3.24 11.98,-3.57 19.09,-3.52c1.17,0 2.35,-0.01 3.56,-0.02c3.24,-0.01 6.48,-0.01 9.72,0c3.5,0.01 7,-0.01 10.5,-0.02c6.06,-0.02 12.11,-0.03 18.17,-0.02c8.76,0 17.52,-0.01 26.28,-0.04c14.22,-0.03 28.44,-0.05 42.65,-0.06c13.81,-0.01 27.61,-0.02 41.41,-0.04c1.28,0 1.28,0 2.58,-0.01c9.29,-0.01 18.58,-0.03 27.87,-0.05c0.81,0 1.63,0 2.47,0c4.88,-0.01 4.88,-0.01 9.77,-0.02c9.55,-0.02 19.1,-0.03 28.65,-0.04c5.98,0 11.96,-0.01 17.94,-0.01c3.46,-0.01 6.91,-0.01 10.37,-0.01c3.74,0 7.47,-0.01 11.21,-0.01c1.65,0 1.65,0 3.34,0c1,0 1.99,0 3.01,-0.01c0.87,0 1.73,0 2.62,0c1.95,0.09 1.95,0.09 2.95,-1.12c0.09,-2.69 0.13,-5.36 0.12,-8.05c0,-0.84 0.01,-1.69 0.01,-2.56c0,-1.84 0,-3.68 0,-5.52c0.01,-3.94 0.03,-7.87 0.05,-11.8c0.04,-7.32 0.07,-14.65 0.07,-21.97c0,-5.09 0.02,-10.18 0.06,-15.28c0.01,-1.93 0.01,-3.86 0,-5.79c-0.04,-12.06 1.07,-21.82 5.69,-33.03c0.58,-1.58 1.16,-3.15 1.73,-4.73c0.36,-0.98 0.36,-0.98 0.74,-1.98c2.86,-7.68 4.81,-15.08 5.53,-23.29c0.1,-1.11 0.1,-1.11 0.21,-2.24c0.56,-11.77 -2.79,-23.91 -8.51,-34.07c-6.22,-11.45 -5.99,-23.88 -5.9,-36.62c0,-1.48 0.01,-2.97 0.01,-4.45c0.01,-3.86 0.03,-7.72 0.05,-11.58c0.02,-3.95 0.03,-7.91 0.04,-11.86c0.02,-7.73 0.05,-15.46 0.1,-23.18c-3.03,-1.52 -6.16,-1.15 -9.48,-1.14c-0.78,-0.01 -1.57,-0.01 -2.38,-0.01c-2.65,-0.01 -5.31,-0.01 -7.96,-0.01c-1.91,-0.01 -3.82,-0.01 -5.74,-0.02c-5.27,-0.01 -10.54,-0.02 -15.82,-0.02c-5.68,-0.01 -11.36,-0.03 -17.04,-0.04c-9.85,-0.02 -19.69,-0.04 -29.54,-0.06c-14.24,-0.02 -28.48,-0.05 -42.72,-0.08c-23.09,-0.04 -46.19,-0.09 -69.29,-0.13c-22.44,-0.04 -44.89,-0.08 -67.33,-0.12c-1.41,0 -2.82,-0.01 -4.23,-0.01c-10.92,-0.02 -21.84,-0.04 -32.76,-0.06c-53.57,-0.11 -107.14,-0.21 -160.71,-0.3c0.33,137.61 0.66,275.22 1,417c228.19,0.49 228.19,0.49 461,1c0,16.83 0,33.66 0,51c-48.8,0.01 -97.6,0.03 -146.4,0.04c-1.08,0 -1.08,0 -2.19,0c-15.68,0 -31.36,0 -47.04,0.01c-7.69,0 -15.38,0 -23.07,0c-0.76,0 -1.53,0 -2.32,0c-24.82,0.01 -49.65,0.01 -74.48,0.02c-25.5,0.01 -51,0.02 -76.5,0.02c-3.6,0 -7.19,0 -10.79,0c-0.71,0 -1.42,0 -2.15,0c-11.42,0 -22.84,0.01 -34.26,0.01c-11.47,0.01 -22.94,0.01 -34.41,0.01c-6.22,0 -12.44,0 -18.66,0.01c-5.68,0 -11.37,0 -17.05,0c-2.07,0 -4.13,0 -6.2,0c-2.79,0 -5.58,0 -8.36,0c-0.82,0 -1.64,0 -2.49,0.01c-5.52,-0.02 -5.52,-0.02 -6.63,-1.13c-0.1,-2.74 -0.14,-5.46 -0.13,-8.2c0,-1.31 0,-1.31 -0.01,-2.64c0,-2.97 0,-5.93 0,-8.9c0,-2.13 0,-4.26 0,-6.39c-0.01,-5.89 -0.01,-11.78 -0.01,-17.67c0,-6.34 0,-12.68 -0.01,-19.02c-0.01,-12.43 -0.01,-24.86 -0.01,-37.29c0,-10.09 0,-20.19 -0.01,-30.29c0,-2.9 0,-5.8 0,-8.71c0,-0.72 0,-1.44 0,-2.18c-0.01,-20.31 -0.01,-40.61 -0.01,-60.92c0,-0.76 0,-1.53 0,-2.32c0,-3.88 0,-7.77 0,-11.65c0,-0.77 0,-1.54 0,-2.34c0,-1.56 0,-3.12 0,-4.68c0,-24.27 -0.01,-48.55 -0.02,-72.82c-0.01,-27.25 -0.02,-54.5 -0.02,-81.75c0,-2.9 0,-5.8 0,-8.71c0,-0.71 0,-1.42 0,-2.16c0,-11.53 -0.01,-23.05 -0.02,-34.58c-0.01,-11.58 -0.01,-23.15 0,-34.73c0,-6.27 0,-12.55 -0.01,-18.83c0,-5.73 0,-11.47 0.01,-17.21c0,-2.08 0,-4.17 -0.01,-6.25c-0.01,-2.82 0,-5.63 0.01,-8.45c-0.01,-0.82 -0.01,-1.64 -0.02,-2.49c0.05,-7.2 1.48,-8.05 8.58,-8.09z" fill="#000000" id="svg_1"/>
  <path d="m218,86c48.5,-0.03 97,-0.07 145.49,-0.08c1.08,-0.01 1.08,-0.01 2.18,-0.01c15.59,0 31.17,-0.01 46.76,-0.01c7.64,0 15.29,-0.01 22.93,-0.01c1.14,0 1.14,0 2.3,0c24.68,-0.01 49.35,-0.02 74.02,-0.04c25.35,-0.02 50.7,-0.03 76.04,-0.04c3.58,0 7.15,0 10.73,0c0.7,0 1.41,0 2.13,0c11.35,0 22.7,-0.01 34.06,-0.02c11.39,-0.02 22.79,-0.02 34.19,-0.02c6.18,0 12.37,0 18.55,-0.01c5.65,-0.01 11.3,-0.01 16.95,0c2.05,0 4.1,0 6.16,-0.01c2.77,-0.01 5.54,0 8.31,0c0.82,0 1.63,-0.01 2.46,-0.01c5.51,0.03 5.51,0.03 7.74,2.26c0.2,2.81 0.26,5.52 0.25,8.34c0,0.87 0,1.75 0,2.65c0.01,2.97 0,5.94 -0.01,8.92c0,2.13 0,4.27 0.01,6.41c0,5.9 -0.01,11.8 -0.02,17.71c-0.01,6.35 0,12.7 0,19.06c0,11.02 -0.01,22.03 -0.02,33.05c-0.01,11.56 -0.02,23.12 -0.02,34.68c0,0.72 0,1.44 0,2.18c0,3.64 0,7.29 0,10.93c-0.01,25.85 -0.02,51.69 -0.04,77.53c-0.02,25.12 -0.03,50.23 -0.04,75.34c0,0.77 0,1.54 0,2.34c0,7.77 -0.01,15.54 -0.01,23.31c0,15.83 -0.01,31.65 -0.02,47.48c0,0.73 0,1.46 0,2.21c-0.01,48.62 -0.05,97.24 -0.08,145.86c-3.39,1.7 -7.26,1.14 -11,1.13c-1.42,0 -1.42,0 -2.87,0.01c-3.21,0 -6.43,0 -9.64,0c-2.31,0 -4.63,0.01 -6.94,0.01c-5.71,0.01 -11.43,0.01 -17.14,0.01c-6.84,0 -13.68,0.01 -20.52,0.01c-16.53,0.02 -33.06,0.03 -49.6,0.03c-7.81,0 -15.63,0.01 -23.45,0.01c-26.74,0.01 -53.49,0.02 -80.23,0.03c-1.68,0 -3.36,0 -5.04,0c-1.69,0 -3.37,0 -5.05,0c-3.38,0 -6.76,0 -10.14,0c-0.83,0 -1.67,0 -2.53,0c-27.17,0 -54.34,0.02 -81.51,0.04c-28.7,0.03 -57.41,0.04 -86.12,0.04c-3.15,0 -6.3,0 -9.44,0c-0.78,0 -1.56,0 -2.35,0c-12.5,0 -25,0.02 -37.5,0.03c-12.55,0.01 -25.1,0.02 -37.66,0.01c-6.8,0 -13.61,0 -20.41,0.01c-6.23,0.01 -12.45,0.01 -18.67,0c-2.26,0 -4.52,0 -6.78,0.01c-3.05,0.01 -6.11,0 -9.16,-0.01c-0.89,0.01 -1.78,0.02 -2.7,0.02c-3.43,-0.02 -5.94,-0.12 -9.1,-1.54c-2.08,-2.65 -1.95,-4.49 -1.95,-7.84c-0.01,-1.25 -0.02,-2.51 -0.03,-3.81c0.01,-1.4 0.02,-2.81 0.04,-4.21c-0.01,-1.49 -0.01,-2.98 -0.02,-4.46c-0.01,-4.1 0,-8.19 0.02,-12.28c0.01,-4.42 0,-8.83 -0.01,-13.24c-0.01,-8.64 0,-17.29 0.02,-25.93c0.02,-10.06 0.02,-20.12 0.02,-30.18c0,-17.94 0.02,-35.88 0.05,-53.83c0.03,-17.42 0.04,-34.85 0.04,-52.28c0,-1.61 0,-1.61 0,-3.25c0,-1.61 0,-1.61 0,-3.25c0,-19.81 0.01,-39.63 0.03,-59.44c0,-7.02 0.01,-14.04 0.01,-21.06c0,-8.55 0.01,-17.1 0.02,-25.64c0.01,-4.37 0.02,-8.73 0.02,-13.1c0,-3.99 0,-7.98 0.02,-11.97c0,-1.45 0,-2.89 0,-4.34c-0.01,-1.96 0,-3.92 0.01,-5.88c0,-1.09 0.01,-2.18 0.01,-3.31c0.25,-2.55 0.25,-2.55 2.25,-4.55c2.89,-0.25 2.89,-0.25 6.67,-0.25c1.05,-0.01 1.05,-0.01 2.12,-0.01c2.36,-0.01 4.72,0 7.08,0.01c1.7,-0.01 3.4,-0.01 5.1,-0.01c4.69,-0.01 9.38,-0.01 14.06,0c5.05,0 10.1,0 15.15,-0.01c9.9,-0.01 19.8,-0.01 29.7,0c8.05,0 16.09,0 24.13,0c1.71,0 1.71,0 3.46,0c2.32,0 4.64,0 6.97,0c21.78,-0.01 43.57,0 65.36,0.01c18.71,0.01 37.42,0.01 56.13,0c21.71,-0.01 43.42,-0.02 65.12,-0.01c2.31,0 4.63,0 6.94,0c1.14,0 2.28,0 3.45,0c8.03,0.01 16.07,0 24.11,0c9.79,-0.01 19.58,-0.01 29.36,0c5,0.01 10,0.01 15,0c4.57,0 9.14,0 13.71,0.01c1.66,0 3.32,0 4.98,0c2.24,-0.01 4.48,0 6.73,0.01c1.24,0 2.49,0 3.78,0c2.89,0.25 2.89,0.25 4.89,2.25c0.24,2.69 0.24,2.69 0.23,6.07c0,1.2 0,2.41 -0.01,3.65c-0.01,1.27 -0.02,2.54 -0.03,3.84c0,1.27 0,2.54 0,3.85c-0.05,9.45 -0.05,9.45 -1.19,10.59c-4.93,-0.49 -9.44,-1.67 -14.19,-3.06c-19.42,-5.14 -37.33,-1.79 -54.64,8.03c-4.63,2.96 -8.91,6.26 -13.2,9.7c-0.98,0.77 -1.96,1.54 -2.97,2.33c-0.82,0.7 -1.65,1.39 -2.49,2.11c-4.92,2.65 -9.09,2.45 -14.6,2.41c-1.12,0.01 -2.24,0.01 -3.39,0.02c-3.75,0.02 -7.51,0.01 -11.26,0.01c-2.69,0 -5.38,0.01 -8.07,0.03c-5.8,0.02 -11.59,0.03 -17.38,0.03c-8.38,0 -16.75,0.02 -25.13,0.04c-13.59,0.04 -27.18,0.07 -40.77,0.08c-13.2,0.01 -26.4,0.03 -39.6,0.06c-1.22,0.01 -1.22,0.01 -2.47,0.01c-4.08,0.01 -8.16,0.02 -12.25,0.03c-33.86,0.08 -67.73,0.13 -101.59,0.17c0,0.98 -0.01,1.95 -0.01,2.96c-0.04,9.28 -0.1,18.56 -0.17,27.84c-0.04,4.77 -0.08,9.54 -0.09,14.31c-0.02,4.62 -0.05,9.23 -0.1,13.85c-0.01,1.75 -0.02,3.49 -0.02,5.24c-0.02,14.62 -2.63,27.35 -6.86,41.3c-3.67,13.46 -4.01,30.26 1.06,43.35c5.1,13.44 5.79,25.71 5.8,39.96c0.01,2.06 0.03,4.13 0.05,6.19c0.04,5.38 0.06,10.76 0.08,16.14c0.02,5.51 0.06,11.02 0.1,16.53c0.07,10.78 0.13,21.55 0.16,32.33c3.03,1.52 6.17,1.13 9.49,1.12c1.18,0 1.18,0 2.38,0.01c2.66,0 5.32,-0.01 7.99,-0.01c1.91,0 3.83,0 5.74,0c5.29,0.01 10.57,0 15.86,0c5.69,-0.01 11.38,-0.01 17.08,-0.01c9.86,0 19.73,0 29.6,0c14.27,-0.01 28.54,-0.01 42.81,-0.02c23.15,0 46.3,-0.01 69.44,-0.01c22.49,-0.01 44.99,-0.02 67.48,-0.03c1.41,0 2.83,0 4.24,0c10.94,0 21.89,0 32.83,0c53.69,-0.01 107.37,-0.03 161.06,-0.05c-0.33,-137.28 -0.66,-274.56 -1,-416c-49.79,-0.09 -49.79,-0.09 -100.59,-0.18c-20.96,-0.04 -41.92,-0.08 -62.88,-0.13c-10.3,-0.02 -20.6,-0.04 -30.91,-0.06c-1.39,0 -2.79,0 -4.19,-0.01c-22.3,-0.04 -44.6,-0.08 -66.9,-0.12c-23.56,-0.04 -47.12,-0.09 -70.68,-0.14c-14.12,-0.03 -28.24,-0.05 -42.37,-0.08c-9.67,-0.01 -19.34,-0.03 -29,-0.05c-5.59,-0.02 -11.18,-0.03 -16.77,-0.03c-5.1,-0.01 -10.21,-0.02 -15.32,-0.04c-1.85,0 -3.71,0 -5.57,0c-2.5,0 -5.01,-0.01 -7.51,-0.02c-1.11,0 -1.11,0 -2.23,0c-4.97,-0.03 -4.97,-0.03 -6.08,-1.14c-0.1,-1.52 -0.13,-3.05 -0.13,-4.58c0,-0.97 -0.01,-1.95 -0.01,-2.95c0,-1.06 0.01,-2.12 0.01,-3.22c0,-1.08 0,-2.16 -0.01,-3.27c0,-2.3 0.01,-4.59 0.01,-6.88c0,-3.52 0,-7.04 -0.01,-10.56c0,-2.22 0.01,-4.44 0.01,-6.66c0,-1.06 -0.01,-2.12 -0.01,-3.21c0.01,-1.46 0.01,-1.46 0.01,-2.96c0,-0.86 0,-1.73 0,-2.62c0.13,-2.09 0.13,-2.09 1.13,-4.09z" fill="#000000" id="svg_2"/>
  <path d="m2872,259c14.52,0 29.04,0 44,0c1.98,3.55 3.96,7.09 6,10.75c5.26,9.41 10.58,18.78 15.94,28.13c6.55,11.43 12.98,22.93 19.37,34.46c3.77,6.81 7.57,13.61 11.38,20.41c0.57,1.03 1.15,2.06 1.74,3.12c2.84,5.06 5.68,10.1 8.57,15.13c4.13,-6.8 8.11,-13.68 12,-20.62c4.58,-8.16 9.26,-16.26 14,-24.32c5.23,-8.9 10.21,-17.92 15.09,-27.02c5.53,-10.29 11.43,-20.37 17.38,-30.42c1.87,-3.19 3.7,-6.41 5.53,-9.62c14.52,0 29.04,0 44,0c0,85.14 0,170.28 0,258c-20.13,0 -40.26,0 -61,0c-0.33,-33.66 -0.66,-67.32 -1,-102c-4.95,8.91 -9.9,17.82 -15,27c-9.4,16.53 -9.4,16.53 -12,21c-0.4,0.9 -0.8,1.8 -1.21,2.73c-1.79,2.27 -1.79,2.27 -4.98,2.84c-1.28,-0.03 -2.56,-0.05 -3.88,-0.08c-0.69,-0.01 -1.37,-0.02 -2.08,-0.02c-2.18,-0.03 -4.36,-0.09 -6.54,-0.16c-1.48,-0.02 -2.96,-0.05 -4.44,-0.07c-3.62,-0.05 -7.25,-0.14 -10.87,-0.24c-0.36,-0.65 -0.72,-1.29 -1.09,-1.96c-7.79,-13.95 -15.62,-27.86 -23.58,-41.71c-1.78,-3.11 -3.55,-6.22 -5.33,-9.33c-0.33,33.66 -0.66,67.32 -1,102c-20.13,0 -40.26,0 -61,0c0,-85.14 0,-170.28 0,-258zm176,9c-0.79,1.47 -1.58,2.93 -2.39,4.44c-6.15,11.42 -12.39,22.78 -18.8,34.05c-3.67,6.47 -7.27,12.97 -10.81,19.51c-3.56,6.57 -7.17,13.11 -10.86,19.61c-1.09,1.91 -2.17,3.83 -3.24,5.76c-2.76,4.93 -5.6,9.79 -8.6,14.58c-0.58,0.98 -1.17,1.95 -1.77,2.95c-1.12,1.85 -2.26,3.68 -3.45,5.48c-1.55,2.63 -2.58,4.6 -3.08,7.62c1.36,4.15 3.47,7.47 6,11c0.66,0.99 1.32,1.98 2,3c3.62,-1.21 3.78,-1.9 5.5,-5.17c0.47,-0.88 0.94,-1.76 1.42,-2.67c0.75,-1.44 0.75,-1.44 1.52,-2.91c1.08,-2.03 2.16,-4.06 3.25,-6.09c0.55,-1.03 1.11,-2.07 1.67,-3.13c2.43,-4.49 4.96,-8.92 7.52,-13.34c4.42,-7.7 8.79,-15.43 13.12,-23.19c4.77,-8.54 9.58,-17.05 14.45,-25.53c4.58,-8 9.08,-16.04 13.57,-24.09c3.48,-6.25 7.04,-12.43 10.68,-18.58c1.38,-2 1.38,-2 1.3,-3.3c-6.27,0 -12.54,0 -19,0zm-166,4c0,77.55 0,155.1 0,235c5.28,0 10.56,0 16,0c0.33,-57.42 0.66,-114.84 1,-174c2.97,5.61 5.94,11.22 9,17c2,3.6 4.02,7.18 6.06,10.75c5.06,8.88 10.02,17.8 14.94,26.75c5.31,9.66 10.68,19.28 16.12,28.86c5.01,8.84 9.94,17.71 14.86,26.6c0.89,1.61 0.89,1.61 1.81,3.26c0.52,0.95 1.04,1.89 1.59,2.87c1.85,3.32 3.74,6.61 5.62,9.91c6.27,0 12.54,0 19,0c-3.99,-8.3 -8.38,-16.27 -12.98,-24.24c-4.25,-7.38 -8.4,-14.81 -12.52,-22.26c-4.94,-8.92 -9.93,-17.8 -15.01,-26.64c-5.72,-9.99 -11.33,-20.04 -16.94,-30.1c-2.01,-3.59 -4.03,-7.17 -6.05,-10.76c-2.59,-4.59 -5.17,-9.19 -7.74,-13.79c-7.03,-12.59 -14.1,-25.15 -21.29,-37.65c-1.55,-2.69 -3.09,-5.39 -4.63,-8.09c-1.01,-1.76 -2.02,-3.52 -3.03,-5.28c-0.7,-1.24 -0.7,-1.24 -1.42,-2.5c-0.43,-0.75 -0.86,-1.5 -1.31,-2.27c-0.38,-0.66 -0.76,-1.33 -1.15,-2.01c-0.3,-0.46 -0.61,-0.93 -0.93,-1.41c-0.33,0 -0.66,0 -1,0zm10,-4c4.25,8.72 8.84,17.17 13.64,25.6c2.06,3.64 4.12,7.27 6.17,10.91c1.13,2 2.26,4 3.39,5.99c3.13,5.54 6.25,11.08 9.36,16.63c2.83,5.04 5.7,10.07 8.57,15.08c5.16,8.99 10.23,18.03 15.25,27.1c4.8,8.7 9.7,17.32 14.75,25.88c4.71,8 9.23,16.07 13.62,24.25c3.89,7.24 7.81,14.45 11.94,21.56c0.61,1.08 0.61,1.08 1.24,2.18c0.97,1.64 2.01,3.24 3.07,4.82c0.66,0 1.32,0 2,0c0.5,-0.88 0.5,-0.88 1,-1.78c5.98,-10.59 11.96,-21.17 18,-31.72c4.65,-8.12 9.26,-16.26 13.86,-24.42c3.03,-5.36 6.07,-10.71 9.13,-16.06c0.35,-0.6 0.69,-1.19 1.04,-1.81c1.66,-2.89 3.31,-5.78 4.97,-8.67c5.8,-10.11 11.38,-20.32 17,-30.54c0.33,57.42 0.66,114.84 1,174c5.28,0 10.56,0 16,0c0,-77.55 0,-155.1 0,-235c-2.69,2.69 -4.09,4.68 -5.9,7.95c-0.55,1 -1.11,2 -1.68,3.03c-0.59,1.08 -1.18,2.16 -1.79,3.27c-1.27,2.28 -2.54,4.57 -3.81,6.85c-0.32,0.58 -0.64,1.16 -0.97,1.76c-3.1,5.61 -6.25,11.19 -9.41,16.77c-1.08,1.9 -2.16,3.8 -3.24,5.71c-0.53,0.94 -1.06,1.87 -1.6,2.84c-1.59,2.79 -3.16,5.59 -4.74,8.39c-5.21,9.23 -10.44,18.45 -15.71,27.64c-6.77,11.81 -13.44,23.66 -20.03,35.57c-4.31,7.78 -8.67,15.52 -13.12,23.22c-0.66,0 -1.32,0 -2,0c-0.33,-0.62 -0.66,-1.23 -1,-1.87c-6.31,-11.74 -12.69,-23.43 -19.34,-34.98c-4.1,-7.14 -8.11,-14.33 -12.1,-21.52c-4.67,-8.44 -9.37,-16.86 -14.12,-25.25c-6.24,-11.02 -12.44,-22.07 -18.62,-33.12c-1.92,-3.44 -3.85,-6.89 -5.78,-10.33c-0.65,-1.15 -1.29,-2.3 -1.95,-3.48c-1.25,-2.22 -2.49,-4.44 -3.74,-6.66c-0.55,-0.99 -1.11,-1.98 -1.68,-3c-0.49,-0.88 -0.99,-1.76 -1.49,-2.66c-0.76,-1.36 -1.48,-2.74 -2.18,-4.13c-6.27,0 -12.54,0 -19,0zm15,99c0,46.2 0,92.4 0,140c5.28,0 10.56,0 16,0c0.23,-14.42 0.41,-28.84 0.52,-43.27c0.05,-6.7 0.12,-13.39 0.23,-20.09c0.11,-6.48 0.17,-12.96 0.2,-19.44c0.02,-2.45 0.05,-4.91 0.11,-7.37c0.32,-15.26 -0.91,-26.13 -9.73,-38.83c-2.35,-3.53 -4.32,-7.27 -6.33,-11c-0.33,0 -0.66,0 -1,0zm144,0c-1.98,3.52 -3.95,7.05 -5.93,10.57c-0.67,1.2 -1.34,2.4 -2.01,3.6c-0.97,1.72 -1.93,3.44 -2.9,5.17c-0.58,1.03 -1.16,2.07 -1.76,3.14c-1.89,3.41 -2.52,5.17 -2.52,9.05c0,0.95 0,1.91 0,2.89c0,1.05 0,2.1 0.01,3.18c0,1.1 0,2.2 0,3.34c0,3.66 0,7.32 0.01,10.97c0,2.53 0.01,5.07 0.01,7.6c0,5.98 0.01,11.97 0.02,17.96c0.01,6.82 0.01,13.64 0.02,20.45c0.01,14.03 0.03,28.05 0.05,42.08c5.28,0 10.56,0 16,0c0,-46.2 0,-92.4 0,-140c-0.33,0 -0.66,0 -1,0z" fill="#000000" id="svg_3" transform="matrix(1 0 0 1 0 0)"/>
  <path d="m2076,259c104.69,0 104.69,0 118.06,4.63c0.76,0.25 1.51,0.51 2.29,0.78c11.56,4.15 20.98,10.94 29.65,19.59c0.55,0.54 1.1,1.08 1.67,1.63c16.15,17.24 20.91,41.82 20.54,64.61c-0.75,22.94 -9.5,44.13 -26.2,60.03c-1.94,1.67 -3.94,3.22 -6.01,4.73c1.26,6.24 2.93,12.21 4.98,18.24c0.29,0.87 0.59,1.74 0.89,2.65c0.63,1.88 1.26,3.76 1.9,5.64c1,2.97 2,5.95 3,8.92c2.11,6.31 4.23,12.62 6.36,18.93c2.46,7.32 4.93,14.66 7.38,21.99c0.99,2.93 1.98,5.87 2.97,8.8c0.6,1.79 1.2,3.58 1.8,5.37c0.28,0.82 0.55,1.63 0.84,2.48c1.03,3.1 1.88,5.68 1.88,8.98c-20.79,0 -41.58,0 -63,0c-4.5,-11.25 -4.5,-11.25 -6.41,-16.84c-0.43,-1.24 -0.85,-2.49 -1.29,-3.77c-0.46,-1.33 -0.91,-2.65 -1.36,-3.98c-0.48,-1.39 -0.96,-2.79 -1.44,-4.18c-1.25,-3.65 -2.49,-7.3 -3.74,-10.94c-1.99,-5.84 -3.99,-11.67 -5.99,-17.5c-0.69,-2.01 -1.38,-4.03 -2.07,-6.04c-2.49,-7.28 -5.05,-14.53 -7.7,-21.75c-5.94,-0.33 -11.88,-0.66 -18,-1c0,28.38 0,56.76 0,86c-20.13,0 -40.26,0 -61,0c0,-85.14 0,-170.28 0,-258zm9,9c0,78.87 0,157.74 0,239c5.61,0 11.22,0 17,0c0,-36.63 0,-73.26 0,-111c17.16,0 34.32,0 52,0c0.99,3.63 1.98,7.26 3,11c0.61,1.98 1.24,3.95 1.89,5.91c0.52,1.54 0.52,1.54 1.04,3.11c0.36,1.07 0.72,2.15 1.1,3.26c0.38,1.15 0.77,2.3 1.17,3.49c1.03,3.09 2.06,6.18 3.1,9.26c1.07,3.2 2.14,6.4 3.21,9.6c1.29,3.85 2.57,7.69 3.86,11.53c2.5,7.45 4.98,14.9 7.45,22.35c0.55,1.67 1.1,3.34 1.65,5.01c0.76,2.27 1.51,4.55 2.26,6.82c0.67,2.04 1.34,4.07 2.02,6.11c0.37,1.1 0.73,2.21 1.11,3.36c1.23,3.45 2.7,6.82 4.14,10.19c5.61,0 11.22,0 17,0c-8,-24.81 -16.15,-49.58 -24.41,-74.31c-1.43,-4.28 -2.86,-8.56 -4.29,-12.84c-2.76,-8.28 -5.53,-16.57 -8.3,-24.85c0.61,-0.06 1.22,-0.11 1.84,-0.17c0.81,-0.09 1.61,-0.17 2.44,-0.25c1.19,-0.12 1.19,-0.12 2.4,-0.24c10.47,-1.55 20.03,-9.27 26.32,-17.34c8.65,-13.24 10.69,-28.62 7.88,-43.94c-3.16,-13.4 -9.67,-24.39 -21.38,-31.87c-15.75,-8.23 -31.67,-7.7 -49,-7.44c-2.38,0.02 -4.77,0.04 -7.15,0.05c-5.79,0.05 -11.57,0.11 -17.35,0.2c0.49,0.99 0.49,0.99 1,2c0.66,0 1.32,0 2,0c0,0.66 0,1.32 0,2c1.58,1.6 1.58,1.6 3.63,3.25c4.1,3.43 4.1,3.43 5.63,5.24c2.82,3.25 4.2,4.41 8.57,5.24c1.42,0.02 2.85,0.01 4.28,-0.03c0.77,0.01 1.53,0.01 2.32,0.02c2.44,0.02 4.88,-0.01 7.32,-0.03c25.8,-0.12 25.8,-0.12 36.12,9.92c6.87,7.69 8.54,17.34 8.01,27.45c-0.99,8.73 -3.89,17.25 -10.88,22.94c-8.17,4.96 -15.1,7.08 -24.65,7.21c-1.32,0.02 -2.64,0.04 -3.99,0.06c-1.39,0.01 -2.78,0.03 -4.16,0.05c-1.28,0.02 -2.55,0.03 -3.86,0.05c-4.74,0.07 -9.48,0.13 -14.21,0.19c-10.61,0.15 -21.21,0.29 -32.13,0.44c0,-31.35 0,-62.7 0,-95c11.22,0.08 22.44,0.16 34,0.25c5.26,0.02 5.26,0.02 10.63,0.05c4.37,0.04 4.37,0.04 6.44,0.07c1.4,0.01 2.81,0.02 4.21,0.02c18.77,0.02 35.58,4.06 49.69,17.32c12.74,14.34 14.86,32.38 14.21,50.72c-0.66,9.47 -4.46,17.82 -9.01,26.05c-1.45,2.66 -1.45,2.66 -1.17,6.52c2.12,2.69 2.12,2.69 4.88,5.25c0.9,0.89 1.8,1.78 2.74,2.7c2.11,2.27 2.11,2.27 4.38,2.05c8.23,-10.02 13.43,-24.21 15,-37c0.13,-1.01 0.27,-2.01 0.4,-3.05c2.04,-19.85 -1.47,-42.32 -13.65,-58.62c-13.11,-16.06 -29.49,-24.98 -49.75,-28.33c-29.9,-2.49 -60,-1 -90,-1zm26,34c0,22.44 0,44.88 0,68c5.28,0 10.56,0 16,0c0.17,-7.42 0.3,-14.84 0.38,-22.26c0.04,-2.52 0.09,-5.05 0.15,-7.57c0.08,-3.63 0.12,-7.26 0.15,-10.89c0.04,-1.13 0.08,-2.25 0.11,-3.41c0.01,-5.52 -0.16,-8.93 -4.16,-12.96c-1.2,-0.99 -2.41,-1.96 -3.63,-2.91c-0.91,-0.95 -1.81,-1.9 -2.75,-2.87c-2.14,-2.33 -2.14,-2.33 -5.25,-3.13c-0.33,-0.66 -0.66,-1.32 -1,-2zm26,18c0,16.5 0,33 0,50c7.92,0.12 7.92,0.12 16,0.25c1.65,0.04 3.3,0.07 5,0.11c8.7,0.11 15.01,-0.24 21.99,-6c5.51,-6.7 7.62,-12.82 7.37,-21.55c-0.84,-6.61 -3.54,-13.13 -8.36,-17.81c-6.12,-4.21 -10.84,-5.13 -18.17,-5.1c-1.25,0 -2.5,0.01 -3.79,0.01c-2.37,0.01 -2.37,0.01 -4.79,0.03c-5.03,0.02 -10.06,0.04 -15.25,0.06zm58.88,76.2c-4.14,2.59 -8.5,4.67 -12.88,6.8c7.49,23.38 15.18,46.68 22.93,69.97c0.76,2.29 1.52,4.57 2.27,6.85c1.21,3.63 2.42,7.27 3.63,10.9c0.45,1.36 0.9,2.72 1.36,4.08c0.62,1.87 1.24,3.74 1.87,5.62c0.35,1.05 0.7,2.11 1.07,3.2c0.65,2.3 0.65,2.3 1.87,3.38c2.86,0.07 5.7,0.09 8.56,0.06c0.81,0 1.62,-0.01 2.45,-0.01c1.99,-0.01 3.99,-0.03 5.99,-0.05c-7.27,-22.65 -14.72,-45.25 -22.25,-67.81c-0.22,-0.65 -0.43,-1.3 -0.66,-1.97c-2.69,-8.08 -5.39,-16.15 -8.09,-24.22c2.52,-2.57 4.97,-4.97 7.81,-7.19c1.09,-0.89 1.09,-0.89 2.19,-1.81c0,-0.66 0,-1.32 0,-2c-0.66,0 -1.32,0 -2,0c0,-0.66 0,-1.32 0,-2c-0.66,0 -1.32,0 -2,0c-0.25,-0.62 -0.5,-1.24 -0.75,-1.87c-1.46,-2.48 -2.63,-3.08 -5.25,-4.13c0,-0.66 0,-1.32 0,-2c-3.3,0 -5.5,2.33 -8.12,4.2zm-77.88,8.8c1.98,2.31 3.96,4.62 6,7c0.79,0.95 1.58,1.89 2.39,2.87c3.98,4.22 7.18,7.27 13.1,7.77c4.2,0.09 8.33,-0.2 12.51,-0.64c-0.26,-1.33 -0.54,-2.67 -0.81,-4c-0.15,-0.74 -0.3,-1.49 -0.46,-2.25c-0.97,-3.67 -2.4,-7.2 -3.73,-10.75c-9.57,0 -19.14,0 -29,0zm-7,8c0,31.02 0,62.04 0,94c5.28,0 10.56,0 16,0c0.34,-10.04 0.62,-20.08 0.78,-30.12c0.08,-4.67 0.18,-9.33 0.35,-14c2,-22.9 2,-22.9 -6.51,-43c-4.77,-4.62 -4.77,-4.62 -10.62,-6.88z" fill="#000000" id="svg_4" transform="matrix(1 0 0 1 0 0)"/>
  <path d="m2641,259c20.13,0 40.26,0 61,0c0,45.21 0,90.42 0,137c13.86,0 27.72,0 42,0c0,-45.21 0,-90.42 0,-137c19.8,0 39.6,0 60,0c0,85.14 0,170.28 0,258c-19.8,0 -39.6,0 -60,0c0,-19.8 0,-39.6 0,-60c-13.86,0 -27.72,0 -42,0c0,19.8 0,39.6 0,60c-20.13,0 -40.26,0 -61,0c0,-85.14 0,-170.28 0,-258zm9,9c0,78.87 0,157.74 0,239c5.61,0 11.22,0 17,0c0,-28.05 0,-56.1 0,-85c31.35,0 62.7,0 95,0c-1.98,-2.31 -3.96,-4.62 -6,-7c-0.7,-0.94 -1.41,-1.87 -2.13,-2.84c-3.39,-4.09 -6.43,-7.18 -11.81,-8.03c-4.77,-0.41 -9.53,-0.26 -14.32,-0.11c-1.56,0.02 -3.11,0.03 -4.67,0.03c-5.73,0.06 -11.46,0.2 -17.19,0.33c-19.25,0.3 -19.25,0.3 -38.88,0.62c0,-45.21 0,-90.42 0,-137c-5.61,0 -11.22,0 -17,0zm26,0c0,42.24 0,84.48 0,128c5.28,0 10.56,0 16,0c0,-42.24 0,-84.48 0,-128c-5.28,0 -10.56,0 -16,0zm77,0c-0.21,16.92 -0.37,33.85 -0.47,50.77c-0.04,7.86 -0.11,15.72 -0.21,23.58c-0.09,6.85 -0.15,13.71 -0.17,20.56c-0.01,3.63 -0.04,7.25 -0.1,10.88c-0.07,4.05 -0.08,8.11 -0.07,12.16c-0.03,1.2 -0.07,2.39 -0.1,3.62c0.07,6.54 0.92,9.97 5.56,14.75c2.87,2.85 2.87,2.85 6.56,3.68c0.33,0.99 0.66,1.98 1,3c1.32,0.66 2.64,1.32 4,2c0,-47.85 0,-95.7 0,-145c-5.28,0 -10.56,0 -16,0zm26,0c0,53.79 0,107.58 0,163c-31.68,0 -63.36,0 -96,0c4.9,5.79 4.9,5.79 10.25,10.81c1.99,1.69 3.9,3.34 5.75,5.19c2.56,0.19 5.01,0.25 7.57,0.23c1.17,0 1.17,0 2.37,0c2.58,0 5.17,-0.02 7.76,-0.03c1.79,-0.01 3.58,-0.01 5.37,-0.01c4.72,-0.01 9.43,-0.03 14.15,-0.05c5.66,-0.03 11.32,-0.04 16.98,-0.05c8.6,-0.02 17.2,-0.06 25.8,-0.09c0,19.8 0,39.6 0,60c5.28,0 10.56,0 16,0c0,-78.87 0,-157.74 0,-239c-5.28,0 -10.56,0 -16,0zm-103,171c0,22.44 0,44.88 0,68c5.28,0 10.56,0 16,0c0.37,-7.27 0.64,-14.54 0.82,-21.82c0.08,-2.47 0.18,-4.94 0.31,-7.4c1.21,-15.25 1.21,-15.25 -4.5,-28.84c-3.49,-3.77 -7.3,-7.17 -11.63,-9.94c-0.33,0 -0.66,0 -1,0zm77,18c0,16.5 0,33 0,50c5.28,0 10.56,0 16,0c0,-16.5 0,-33 0,-50c-5.28,0 -10.56,0 -16,0z" fill="#000000" id="svg_5" transform="matrix(1 0 0 1 0 0)"/>
  <path d="m899,263c115.85,0 115.85,0 140.36,23.15c15.6,16.86 21.5,39.54 20.92,62.11c-1.38,18.44 -6.93,34.91 -18.28,49.74c-4.54,-1.42 -7.04,-3.72 -10.31,-7.12c-0.89,-0.92 -1.77,-1.83 -2.68,-2.76c-0.66,-0.7 -1.33,-1.4 -2.01,-2.12c1.23,-2.51 2.52,-4.97 3.84,-7.43c9.12,-17.23 12.04,-34.89 7.34,-54.05c-5.28,-15.78 -13.1,-26.8 -27.78,-34.97c-12.43,-6.11 -25.48,-7.01 -39.08,-7.06c-1.38,-0.02 -2.75,-0.03 -4.13,-0.05c-5.02,-0.06 -10.04,-0.09 -15.06,-0.13c-11.27,-0.1 -22.53,-0.2 -34.13,-0.31c0,32.01 0,64.02 0,97c9.98,-0.12 19.97,-0.25 30.25,-0.37c4.69,-0.06 4.69,-0.06 9.48,-0.11c2.51,-0.03 5.02,-0.07 7.54,-0.11c1.27,-0.01 2.55,-0.02 3.87,-0.03c12.38,-0.2 25.09,-0.68 34.9,-9.13c6.88,-7.24 10.09,-16.31 9.96,-26.25c-0.88,-10.47 -3.88,-19.91 -12,-27c-7.64,-4.75 -13.98,-6.15 -22.91,-5.89c-2.38,0.02 -4.75,0.03 -7.13,0.05c-1.63,0.02 -3.25,0.06 -4.87,0.12c-8.33,0.29 -15.15,0.33 -21.71,-5.31c-2.62,-2.53 -5.03,-5.18 -7.38,-7.97c-1.12,-1.3 -2.24,-2.6 -3.36,-3.9c-0.88,-1.03 -1.76,-2.06 -2.64,-3.1c7.54,-0.1 15.08,-0.17 22.62,-0.22c2.56,-0.02 5.12,-0.05 7.67,-0.08c20.57,-0.27 40.17,-0.31 56.4,14.18c11.78,12.52 14.94,28.1 14.56,44.71c-0.63,14.76 -6.81,26.22 -17.25,36.41c-13.09,11.01 -27.24,12.47 -43.8,12.29c-1.4,0 -2.79,0 -4.19,-0.01c-5.11,-0.01 -10.22,-0.05 -15.32,-0.09c-11.45,-0.06 -22.9,-0.13 -34.69,-0.19c0,37.95 0,75.9 0,115c-6.27,0 -12.54,0 -19,0c0,-82.17 0,-164.34 0,-249z" fill="#000000" id="svg_6"/>
  <path d="m1490.62,274.99c0.79,0.66 1.57,1.33 2.38,2.01c1.06,0.89 1.06,0.89 2.14,1.79c16.81,15.47 24.17,39.04 25.86,61.21c0.13,3.31 0.15,6.6 0.15,9.91c0,0.94 0,1.87 0.01,2.83c0.01,3.06 0.01,6.12 0.01,9.18c0,2.15 0.01,4.3 0.01,6.45c0.01,4.5 0.01,8.99 0.01,13.49c0,5.72 0.01,11.45 0.03,17.18c0.01,4.43 0.01,8.87 0.01,13.31c0,2.11 0.01,4.22 0.01,6.33c0.09,25.19 -2.79,50.95 -19.24,71.32c-3.17,-1.42 -5.49,-3.16 -8.06,-5.5c-2.27,-2.06 -4.37,-3.79 -6.94,-5.5c1.37,-3.68 3.06,-7.1 4.87,-10.57c6.54,-12.58 9.28,-24.24 9.29,-38.44c0.01,-0.98 0.01,-1.96 0.02,-2.97c0.01,-3.24 0.02,-6.47 0.03,-9.71c0,-1.11 0,-2.22 0,-3.36c0.02,-5.89 0.03,-11.77 0.03,-17.66c0.01,-6.04 0.03,-12.09 0.06,-18.13c0.02,-4.68 0.02,-9.36 0.03,-14.03c0,-2.23 0.01,-4.46 0.02,-6.68c0.13,-23.04 -2.2,-44.65 -18.35,-62.45c-11.63,-11.46 -26.87,-16.82 -43,-17c-15.97,0.91 -31.07,5.89 -42,18c-0.93,0.93 -1.85,1.86 -2.81,2.81c-11.39,13.52 -15.33,31.48 -15.35,48.71c0,0.93 -0.01,1.86 -0.01,2.82c-0.02,3.06 -0.02,6.12 -0.03,9.19c0,1.05 -0.01,2.1 -0.01,3.19c-0.01,5.58 -0.02,11.16 -0.03,16.75c0,5.72 -0.03,11.44 -0.06,17.17c-0.01,4.43 -0.02,8.87 -0.02,13.31c0,2.1 -0.01,4.21 -0.02,6.32c-0.13,20.65 1.59,39.74 13.01,57.61c1.33,2.12 1.33,2.12 2.32,4.34c0.95,2.13 0.95,2.13 4.01,2.78c0.68,0.72 1.36,1.45 2.07,2.19c10.16,10.5 25.75,14.44 39.93,14.81c14.5,-0.38 26.11,-4.84 38,-13c0.99,-0.66 1.98,-1.32 3,-2c3.96,3.96 7.92,7.92 12,12c-4.72,9.44 -15.63,14.04 -25,18c-20.01,6.59 -44.78,6.19 -64,-3c-19.56,-10.38 -32.97,-26.09 -40,-47c-4.84,-16.59 -5.17,-33.03 -5.2,-50.19c0,-1.01 -0.01,-2.02 -0.01,-3.07c-0.01,-5.37 -0.02,-10.74 -0.03,-16.11c0,-5.49 -0.03,-10.99 -0.06,-16.48c-0.01,-4.27 -0.02,-8.54 -0.02,-12.82c0,-2.02 -0.01,-4.04 -0.02,-6.06c-0.18,-28.29 4.01,-55.88 24.34,-77.27c10.22,-9.88 22.06,-16.86 36,-20c0.89,-0.2 1.77,-0.41 2.69,-0.62c23.63,-4.68 48.78,-0.4 67.93,14.61z" fill="#000000" id="svg_7"/>
  <path d="m1941.45,273.82c19.48,16.65 29.15,37.68 31.55,63.18c0.15,3.38 0.17,6.76 0.18,10.14c0,0.98 0.01,1.96 0.02,2.98c0.02,3.23 0.03,6.47 0.04,9.71c0,1.11 0.01,2.23 0.01,3.38c0.02,5.91 0.04,11.82 0.05,17.73c0.01,6.05 0.04,12.1 0.08,18.15c0.03,4.7 0.04,9.4 0.04,14.1c0,2.22 0.02,4.45 0.03,6.68c0.21,25.52 -3.52,49.31 -19.45,70.13c-3.9,-1.62 -6.71,-4.28 -9.75,-7.13c-0.51,-0.46 -1.01,-0.93 -1.53,-1.41c-1.25,-1.15 -2.48,-2.31 -3.72,-3.46c0.52,-0.83 1.04,-1.65 1.57,-2.5c6.91,-11.28 11.14,-22.6 12.55,-35.81c0.08,-0.78 0.16,-1.55 0.25,-2.35c0.88,-8.87 0.92,-17.72 0.9,-26.62c0,-1.79 0,-3.59 0,-5.38c0.01,-3.72 0,-7.45 -0.01,-11.17c-0.01,-4.72 0,-9.44 0.01,-14.16c0.01,-3.69 0,-7.38 0,-11.07c0,-1.74 0,-3.48 0,-5.22c0.02,-8.85 -0.2,-17.59 -1.15,-26.4c-0.11,-1.07 -0.11,-1.07 -0.22,-2.16c-2.18,-18.24 -10.11,-33.38 -23.68,-45.79c-12.42,-9.72 -29.46,-12.42 -44.72,-10.75c-16.13,2.5 -29.46,9.84 -39.38,22.84c-12.57,18.49 -13.28,38.92 -13.29,60.39c0,1.94 0,3.88 -0.01,5.82c0,4.06 -0.01,8.12 0,12.18c0,5.15 -0.02,10.3 -0.04,15.46c-0.01,4.01 -0.01,8.01 -0.01,12.02c0,1.9 0,3.8 -0.01,5.7c-0.09,24.91 1.51,49.55 19.3,68.78c11.6,11.04 27.09,16.17 42.94,16.19c13.58,-0.79 25.19,-4.24 35.98,-12.64c2.02,-1.36 2.02,-1.36 5.02,-1.36c2.02,1.72 3.84,3.42 5.69,5.31c0.51,0.5 1.02,1 1.55,1.52c3.76,3.79 3.76,3.79 3.76,7.17c-15.42,14.59 -35.66,19.37 -56.32,19.15c-21.48,-0.87 -40.76,-8.92 -55.83,-24.35c-14.63,-17.04 -21.18,-38.95 -21.12,-61.11c-0.01,-1.06 -0.01,-2.12 -0.02,-3.22c-0.01,-3.46 -0.01,-6.93 -0.01,-10.4c0,-2.43 -0.01,-4.87 -0.01,-7.3c-0.01,-5.09 -0.01,-10.18 0,-15.28c0,-6.48 -0.02,-12.97 -0.04,-19.46c-0.01,-5.03 -0.01,-10.06 -0.01,-15.08c0,-2.39 -0.01,-4.78 -0.02,-7.17c-0.1,-27.13 4.25,-52.32 23.39,-72.92c27.5,-25.72 74.91,-31.01 105.44,-7.04z" fill="#000000" id="svg_8"/>
  <path d="m350.85,397.85c1.91,-0.01 1.91,-0.01 3.86,-0.02c1.42,0 2.84,-0.01 4.27,-0.01c1.49,-0.01 2.98,-0.01 4.47,-0.02c4.91,-0.02 9.82,-0.03 14.74,-0.04c1.69,-0.01 3.38,-0.01 5.08,-0.01c7.97,-0.02 15.94,-0.04 23.91,-0.05c9.17,0 18.35,-0.03 27.52,-0.07c7.1,-0.03 14.21,-0.05 21.31,-0.05c4.23,0 8.47,-0.01 12.7,-0.04c4,-0.02 8,-0.02 12,-0.01c1.45,0 2.91,-0.01 4.36,-0.02c13.82,-0.13 26.65,2.4 39.43,7.74c13.98,5.24 26.61,2.95 40.83,-0.56c0.94,-0.23 1.88,-0.46 2.84,-0.7c0.84,-0.21 1.67,-0.43 2.53,-0.65c2.46,-0.37 3.94,-0.01 6.3,0.66c0.02,6.53 0.04,13.06 0.05,19.6c0.01,2.22 0.01,4.44 0.02,6.67c0.02,3.19 0.02,6.38 0.03,9.57c0,1 0.01,2 0.01,3.03c0,0.92 0,1.84 0,2.79c0,0.82 0.01,1.63 0.01,2.47c-0.12,1.87 -0.12,1.87 -1.12,2.87c-3.04,0.1 -6.05,0.13 -9.08,0.12c-1.45,0 -1.45,0 -2.92,0c-3.26,0 -6.52,0 -9.78,-0.01c-2.33,0 -4.65,0 -6.98,0c-6.33,0 -12.66,0 -19,-0.01c-5.94,-0.01 -11.88,-0.01 -17.83,-0.01c-11.77,0 -23.54,-0.01 -35.32,-0.02c-11.44,-0.01 -22.88,-0.01 -34.32,-0.02c-0.7,0 -1.41,0 -2.13,0c-3.54,0 -7.07,0 -10.61,0c-29.34,-0.01 -58.69,-0.03 -88.03,-0.05c-1.15,-4.76 -0.43,-8.3 0.87,-12.94c0.38,-1.38 0.75,-2.77 1.12,-4.15c0.17,-0.61 0.34,-1.22 0.51,-1.84c1.14,-4.74 1.62,-9.23 1.56,-14.09c-0.01,-1.11 -0.02,-2.21 -0.02,-3.35c-0.02,-1.14 -0.03,-2.27 -0.04,-3.45c-0.03,-2.27 -0.05,-4.55 -0.06,-6.83c-0.02,-1 -0.03,-2.01 -0.04,-3.04c0.19,-4.55 3.03,-3.44 6.95,-3.46z" fill="#000000" id="svg_9"/>
  <path d="m2410,259c59.4,0 118.8,0 180,0c0,20.13 0,40.26 0,61c-19.47,0 -38.94,0 -59,0c0.01,5.93 0.01,11.86 0.02,17.98c0.01,19.54 0.02,39.09 0.03,58.63c0.01,11.86 0.01,23.72 0.03,35.57c0.01,10.33 0.01,20.67 0.01,31c0.01,5.47 0.01,10.94 0.02,16.42c0,5.14 0,10.29 0,15.43c0,1.9 0.01,3.79 0.01,5.69c0,2.57 0,5.14 0,7.72c0,0.76 0.01,1.52 0.01,2.3c-0.02,5.15 -0.02,5.15 -1.13,6.26c-19.8,0 -39.6,0 -60,0c0,-65.01 0,-130.02 0,-197c-19.8,0 -39.6,0 -60,0c0,-20.13 0,-40.26 0,-61zm9,9c0,5.61 0,11.22 0,17c19.8,0 39.6,0 60,0c0,73.26 0,146.52 0,222c5.28,0 10.56,0 16,0c0,-73.26 0,-146.52 0,-222c28.38,0 56.76,0 86,0c0,-5.61 0,-11.22 0,-17c-53.46,0 -106.92,0 -162,0zm0,26c0,5.61 0,11.22 0,17c16.83,0 33.66,0 51,0c0,-5.61 0,-11.22 0,-17c-16.83,0 -33.66,0 -51,0zm93,0c1.98,2.31 3.96,4.62 6,7c0.6,0.94 1.2,1.88 1.82,2.85c3.09,4.23 5.72,6.68 10.87,7.66c8.14,0.75 16.28,0.4 24.44,0.12c2.5,-0.06 5.01,-0.1 7.52,-0.14c6.12,-0.11 12.23,-0.28 18.35,-0.49c0,-5.61 0,-11.22 0,-17c-22.77,0 -45.54,0 -69,0zm-7,8c0,67.65 0,135.3 0,205c5.28,0 10.56,0 16,0c0.35,-24.51 0.62,-49.03 0.78,-73.54c0.07,-11.39 0.18,-22.77 0.35,-34.15c0.15,-9.93 0.25,-19.85 0.28,-29.78c0.02,-5.26 0.07,-10.5 0.18,-15.76c0.1,-4.95 0.13,-9.9 0.11,-14.86c0,-1.81 0.03,-3.61 0.09,-5.42c0.24,-8.09 0.18,-14.58 -5.21,-21.01c-3.57,-3.79 -7.37,-7.39 -11.58,-10.48c-0.33,0 -0.66,0 -1,0z" fill="#000000" id="svg_10" transform="matrix(1 0 0 1 0 0)"/>
  <path d="m238,320c30.05,-0.02 60.1,-0.04 90.14,-0.05c3.55,0 7.09,0 10.64,0c0.7,-0.01 1.41,-0.01 2.13,-0.01c11.44,0 22.88,-0.01 34.32,-0.02c11.73,-0.01 23.46,-0.01 35.18,-0.01c6.6,-0.01 13.19,-0.01 19.78,-0.02c6.19,0 12.39,0 18.59,0c2.28,0 4.56,-0.01 6.84,-0.01c3.1,0 6.2,0 9.3,0c1.37,0 1.37,0 2.77,-0.01c6.2,0.02 6.2,0.02 7.31,1.13c0.02,2.19 -0.01,4.38 -0.06,6.56c-0.12,11.95 1.25,23.21 5.16,34.57c0.93,2.96 1.54,5.79 1.9,8.87c-1.78,1.78 -4.38,1.15 -6.79,1.16c-1.26,0.01 -2.52,0.02 -3.82,0.03c-1.41,0.01 -2.81,0.01 -4.22,0.02c-1.48,0.01 -2.95,0.02 -4.42,0.03c-4.86,0.03 -9.71,0.05 -14.56,0.07c-0.83,0 -1.65,0.01 -2.5,0.01c-7.79,0.03 -15.58,0.06 -23.37,0.07c-9.96,0.02 -19.92,0.07 -29.88,0.14c-7,0.04 -14.01,0.07 -21.01,0.08c-4.18,0 -8.36,0.02 -12.54,0.05c-3.94,0.04 -7.88,0.05 -11.82,0.04c-1.44,0 -2.89,0.01 -4.33,0.03c-9.03,0.13 -14.85,-0.7 -21.74,-6.73c-15.03,-12.22 -32.32,-18.49 -51.85,-17.22c-10.2,1.06 -20.44,4 -30.15,7.22c-1.48,-1.09 -1.48,-1.09 -3,-3c-0.37,-2.94 -0.37,-2.94 -0.36,-6.5c0,-1.28 0,-2.56 0,-3.88c0.01,-1 0.01,-1 0.02,-2.02c0.03,-2.03 0.02,-4.06 0.02,-6.09c0.05,-10.34 0.05,-10.34 2.32,-14.51z" fill="#000000" id="svg_11"/>
  <path d="m1926.22,296.56c12.77,10.24 18.45,26.78 20.32,42.53c0.81,8.43 0.63,16.93 0.63,25.39c0,1.9 0.01,3.8 0.01,5.7c0.01,3.98 0.01,7.95 0.01,11.92c0,5.05 0.01,10.11 0.03,15.16c0.01,3.92 0.01,7.84 0.01,11.77c0,1.86 0.01,3.72 0.01,5.58c0.09,23.25 -1.84,44.69 -18.38,62.61c-11.19,10.68 -25.63,13.22 -40.56,13c-12.73,-0.45 -23.85,-6.03 -32.98,-14.71c-16.19,-17.48 -16.64,-40.2 -16.62,-62.62c0,-2.03 -0.01,-4.05 -0.01,-6.07c-0.01,-4.23 -0.01,-8.45 0,-12.67c0,-5.37 -0.02,-10.74 -0.04,-16.1c-0.01,-4.18 -0.01,-8.35 -0.01,-12.53c0,-1.97 -0.01,-3.95 -0.02,-5.93c-0.07,-16.5 0.55,-33.62 8.38,-48.59c1.32,-1.32 2.64,-2.64 4,-4c4.29,4.29 8.58,8.58 13,13c-0.71,2.31 -1.43,4.62 -2.15,6.94c-2.04,7.36 -3.15,14.12 -3.12,21.78c-0.01,0.93 -0.01,1.85 -0.02,2.81c-0.01,3.04 -0.01,6.07 -0.01,9.11c0,2.13 -0.01,4.26 -0.01,6.39c-0.01,4.46 -0.01,8.92 0,13.38c0,5.68 -0.02,11.37 -0.04,17.05c-0.01,4.4 -0.01,8.8 -0.01,13.2c0,2.09 -0.01,4.18 -0.02,6.28c-0.07,16.05 -0.13,32.51 11.3,45.19c7.43,6.88 15.39,9.24 25.4,9.08c8.71,-0.67 15.57,-3.97 21.68,-10.21c7.79,-10.29 10.15,-21.43 10.16,-34.09c0.01,-0.89 0.01,-1.79 0.02,-2.71c0.01,-2.95 0.02,-5.9 0.02,-8.85c0.01,-1.02 0.01,-2.03 0.01,-3.08c0.02,-5.37 0.03,-10.74 0.03,-16.11c0.01,-5.52 0.03,-11.04 0.06,-16.55c0.02,-4.27 0.02,-8.54 0.02,-12.81c0.01,-2.03 0.02,-4.06 0.03,-6.09c0.1,-16.44 -0.35,-32.31 -10.66,-46.02c-6.57,-6.57 -13.74,-9.69 -23.06,-10c-8.11,0.17 -14.07,2.58 -20.63,7.31c-1.98,0.99 -1.98,0.99 -4,2c-3.96,-3.96 -7.92,-7.92 -12,-12c3.53,-7.06 10.2,-11.25 17.52,-13.91c18.07,-5.29 36.32,-2.33 51.7,8.47z" fill="#000000" id="svg_12" transform="matrix(1 0 0 1 0 0)"/>
  <path d="m1472,295c13.33,11.17 19.54,25.05 22,42c0.26,3.52 0.29,7.03 0.29,10.56c0.01,0.99 0.01,1.98 0.02,3c0.02,3.25 0.02,6.49 0.03,9.74c0,2.28 0.01,4.56 0.02,6.84c0.01,4.76 0.01,9.53 0.01,14.3c0,6.07 0.03,12.15 0.06,18.22c0.02,4.7 0.03,9.41 0.03,14.12c0,2.24 0.01,4.47 0.02,6.71c0.14,20.82 -2.07,39.55 -17.19,55.32c-11.28,10.78 -23.42,14.57 -38.85,14.49c-13.14,-0.32 -24.67,-4.43 -34.25,-13.61c-16.58,-17.79 -17.51,-38.89 -17.49,-61.99c0,-2.17 -0.01,-4.33 -0.01,-6.5c-0.01,-4.53 -0.01,-9.05 -0.01,-13.58c0.01,-5.76 -0.01,-11.52 -0.03,-17.29c-0.01,-4.47 -0.02,-8.94 -0.01,-13.41c0,-2.12 -0.01,-4.24 -0.02,-6.37c-0.07,-16.12 0.34,-32.04 8.38,-46.55c1.32,-1.32 2.64,-2.64 4,-4c4.29,4.29 8.58,8.58 13,13c-0.81,2.32 -1.63,4.65 -2.46,7.04c-3.44,11 -3.23,21.88 -3.13,33.29c0,2.21 0,4.42 0,6.64c0,4.6 0.02,9.2 0.05,13.81c0.04,5.87 0.04,11.74 0.03,17.61c0,4.55 0.01,9.11 0.03,13.66c0.01,2.17 0.01,4.33 0.01,6.5c0.01,16.04 0.13,30.77 11.25,43.49c6.32,6.1 13.97,9.07 22.72,9.46c8.9,-0.37 16.03,-3.53 22.5,-9.5c0.66,0 1.32,0 2,0c0.23,-0.64 0.45,-1.28 0.69,-1.94c1.31,-3.06 1.31,-3.06 2.45,-4.87c7.97,-12.7 7.3,-27.99 7.22,-42.45c0,-1.92 0,-3.84 0,-5.76c0,-4 -0.01,-8 -0.02,-12c-0.03,-5.09 -0.03,-10.18 -0.02,-15.27c0,-3.96 0,-7.91 -0.01,-11.87c-0.01,-1.87 -0.01,-3.75 -0.01,-5.63c0.05,-25.71 0.05,-25.71 -11.3,-48.21c-8.04,-6.46 -15.55,-9.64 -25.91,-9.35c-8.16,0.93 -14.75,4.28 -21.09,9.35c-0.65,-0.67 -0.65,-0.67 -1.32,-1.36c-3.73,-3.79 -7.54,-7.3 -11.68,-10.64c2.55,-6.29 8.96,-9.65 14.93,-12.3c17.54,-6.52 37.43,-5.58 53.07,5.3z" fill="#000000" id="svg_13"/>
  <path d="m2298,259c20.13,0 40.26,0 61,0c0,85.14 0,170.28 0,258c-19.8,0 -39.6,0 -60,0c-1,-1 -1,-1 -1.12,-2.77c0,-0.78 0,-1.56 0,-2.37c-0.01,-0.89 -0.01,-1.79 -0.01,-2.72c0,-0.99 0.01,-1.99 0.01,-3.02c0,-1.05 0,-2.1 0,-3.18c0,-3.55 0,-7.1 0.01,-10.65c0,-2.53 0,-5.06 0,-7.59c0,-5.47 0,-10.93 0,-16.4c0.01,-7.9 0.01,-15.81 0.02,-23.71c0,-12.82 0.01,-25.65 0.01,-38.47c0.01,-12.46 0.02,-24.91 0.03,-37.37c0,-1.15 0,-1.15 0,-2.33c0,-3.85 0,-7.7 0,-11.55c0.01,-31.95 0.03,-63.91 0.05,-95.87zm10,9c0,78.87 0,157.74 0,239c5.28,0 10.56,0 16,0c0,-78.87 0,-157.74 0,-239c-5.28,0 -10.56,0 -16,0zm26,0c0,78.87 0,157.74 0,239c5.28,0 10.56,0 16,0c0,-78.87 0,-157.74 0,-239c-5.28,0 -10.56,0 -16,0z" fill="#000000" id="svg_14"/>
  <path d="m1582,263c22.02,-0.02 44.04,-0.04 66.05,-0.05c10.23,-0.01 20.45,-0.01 30.67,-0.03c8.91,-0.01 17.81,-0.01 26.72,-0.01c4.72,-0.01 9.44,-0.01 14.16,-0.02c4.43,0 8.87,0 13.31,0c1.63,0 3.26,-0.01 4.89,-0.01c2.22,0 4.44,0 6.66,0c1.25,0 2.49,0 3.78,0c2.76,0.12 2.76,0.12 3.76,1.12c0,5.94 0,11.88 0,18c-29.37,0 -58.74,0 -89,0c0,75.9 0,151.8 0,230c-6.27,0 -12.54,0 -19,0c0,-75.9 0,-151.8 0,-230c-20.46,0 -40.92,0 -62,0c0,-6.27 0,-12.54 0,-19z" fill="#000000" id="svg_15"/>
  <path d="m1130,263c5.94,0 11.88,0 18,0c1,1 1,1 1.12,3.33c0,1.03 0,2.07 0,3.14c0,1.19 0,2.38 0,3.6c0,1.32 0,2.63 -0.01,3.99c0,1.39 0,2.78 0,4.16c0,3.79 0,7.57 -0.01,11.35c0,3.95 -0.01,7.9 -0.01,11.85c0,7.48 -0.01,14.97 -0.02,22.45c-0.01,8.52 -0.01,17.04 -0.02,25.55c-0.01,17.53 -0.03,35.05 -0.05,52.58c1.48,-0.06 1.48,-0.06 3,-0.11c9.4,-0.35 18.79,-0.6 28.19,-0.77c4.84,-0.09 9.66,-0.21 14.49,-0.4c35.54,-1.4 35.54,-1.4 45.27,7.34c8.05,8.8 8.05,8.8 8.05,12.94c-32.67,0 -65.34,0 -99,0c0,29.04 0,58.08 0,88c-6.27,0 -12.54,0 -19,0c0,-82.17 0,-164.34 0,-249z" fill="#000000" id="svg_16"/>
  <path d="m1263,263c5.94,0 11.88,0 18,0c1.97,1.97 1.12,5 1.13,7.62c0,0.96 -0.01,1.92 -0.01,2.92c0,1.01 0,2.02 0,3.07c0,3.42 0,6.84 -0.01,10.27c0,2.44 0,4.89 0,7.33c0,5.27 0,10.55 0,15.82c-0.01,7.63 -0.01,15.26 -0.02,22.88c0,12.38 -0.01,24.75 -0.01,37.12c-0.01,12.02 -0.02,24.05 -0.03,36.07c0,0.74 0,1.48 0,2.24c0,3.72 0,7.43 0,11.15c-0.01,30.83 -0.03,61.67 -0.05,92.51c-6.27,0 -12.54,0 -19,0c0,-20.46 0,-40.92 0,-62c-5.82,0.17 -11.64,0.35 -17.63,0.53c-3.71,0.07 -7.43,0.15 -11.14,0.2c-5.88,0.09 -11.76,0.2 -17.64,0.4c-4.74,0.17 -9.49,0.25 -14.24,0.29c-1.8,0.03 -3.59,0.08 -5.39,0.17c-8.16,0.35 -14.96,0.5 -21.44,-4.99c-3.33,-3.17 -6.35,-6.55 -9.23,-10.13c-1.24,-1.6 -1.24,-1.6 -3.29,-2.47c0,-0.66 0,-1.32 0,-2c33,0 66,0 100,0c0,-55.77 0,-111.54 0,-169z" fill="#000000" id="svg_17" transform="matrix(1 0 0 1 0 0)"/>
  <path d="m565,302c10.46,6.76 16.01,14.8 19.3,26.74c2.2,10.28 0.53,20.34 -4.59,29.58c-6.46,9.18 -15.52,16.54 -26.71,18.68c-12.45,0.85 -23.11,-0.11 -33.16,-8.3c-9.89,-9.1 -14.08,-18.24 -15.15,-31.57c0.38,-11.16 4.47,-19.81 11.87,-27.94c13.19,-11.84 32.26,-16.32 48.44,-7.19z" fill="#000000" id="svg_18"/>
  <path d="m296.88,385.75c9.07,6.68 14.55,15.25 16.74,26.39c1.53,11.44 -0.98,21.79 -7.54,31.32c-6.46,7.91 -14.83,13.67 -25.14,14.76c-13.44,0.93 -24.12,-0.91 -34.64,-9.87c-9.09,-9.3 -12.14,-19.61 -12.3,-32.35c0.85,-10.83 5.99,-20.72 14,-28c14.66,-11.22 33.23,-12.02 48.88,-2.25z" fill="#000000" id="svg_19"/>
  <path d="m1671,297c3.34,1.67 4.62,2.39 6.95,4.97c0.51,0.57 1.03,1.14 1.57,1.73c0.53,0.59 1.06,1.19 1.61,1.8c1.06,1.18 2.12,2.35 3.19,3.53c0.88,0.98 1.77,1.96 2.68,2.97c0.66,0.66 1.32,1.32 2,2c0.19,2.62 0.26,5.14 0.24,7.76c0,0.81 0,1.62 0.01,2.45c0,2.73 -0.01,5.46 -0.02,8.19c0,1.95 0,3.9 0,5.86c0,5.31 -0.01,10.62 -0.03,15.92c-0.01,5.55 -0.01,11.09 -0.01,16.64c-0.01,10.5 -0.03,21.01 -0.05,31.51c-0.02,11.96 -0.03,23.91 -0.04,35.87c-0.02,24.6 -0.06,49.2 -0.1,73.8c-5.94,0 -11.88,0 -18,0c0,-70.95 0,-141.9 0,-215z" fill="#000000" id="svg_20" transform="matrix(1 0 0 1 0 0)"/>
  <path d="m1236,263c6.27,0 12.54,0 19,0c0,50.82 0,101.64 0,154c-2.31,-1.98 -4.62,-3.96 -7,-6c-0.97,-0.74 -1.94,-1.49 -2.94,-2.25c-0.68,-0.58 -1.36,-1.16 -2.06,-1.75c0,-0.66 0,-1.32 0,-2c-0.6,-0.27 -1.2,-0.54 -1.81,-0.81c-2.29,-1.25 -3.59,-2.14 -5.19,-4.19c-0.37,-2.51 -0.37,-2.51 -0.36,-5.56c0,-1.16 -0.01,-2.32 -0.01,-3.51c0.01,-1.27 0.02,-2.54 0.03,-3.85c0,-1.35 0,-2.7 0,-4.05c0,-3.66 0.01,-7.33 0.04,-11c0.01,-3.83 0.02,-7.66 0.02,-11.49c0.01,-7.26 0.03,-14.52 0.06,-21.77c0.04,-8.26 0.05,-16.53 0.07,-24.79c0.03,-16.99 0.08,-33.99 0.15,-50.98z" fill="#000000" id="svg_21" transform="matrix(1 0 0 1 0 0)"/>
  <path d="m1157,263c5.94,0 11.88,0 18,0c0,44.22 0,88.44 0,134c-6.27,0 -12.54,0 -19,0c-0.02,-17.32 -0.04,-34.65 -0.05,-51.97c-0.01,-8.04 -0.01,-16.09 -0.03,-24.13c-0.01,-7.01 -0.01,-14.02 -0.01,-21.02c-0.01,-3.72 -0.01,-7.43 -0.02,-11.14c0,-4.14 0,-8.28 0,-12.42c-0.01,-1.24 -0.01,-2.48 -0.01,-3.76c0,-1.12 0,-2.24 0,-3.39c0,-0.98 0,-1.96 0,-2.97c0.12,-2.2 0.12,-2.2 1.12,-3.2z" fill="#000000" id="svg_22" transform="matrix(1 0 0 1 0 0)"/>
  <path d="m926,412c3.34,1.67 4.91,2.66 7.42,5.19c0.92,0.92 0.92,0.92 1.86,1.86c0.94,0.97 0.94,0.97 1.91,1.95c0.64,0.64 1.28,1.28 1.94,1.95c4.3,4.33 5.98,6.16 5.99,12.5c0,0.76 0,1.52 -0.01,2.3c0,0.8 0,1.6 0,2.43c0,2.65 0,5.3 -0.01,7.95c0,1.84 -0.01,3.67 -0.01,5.51c0,4.84 -0.01,9.67 -0.02,14.51c-0.01,4.93 -0.02,9.87 -0.02,14.8c-0.01,9.68 -0.03,19.37 -0.05,29.05c-6.27,0 -12.54,0 -19,0c0,-33 0,-66 0,-100z" fill="#000000" id="svg_23" transform="matrix(1 0 0 1 0 0)"/>
  <path d="m1020,391c4.07,1.61 6.77,4.54 9.75,7.63c0.51,0.51 1.01,1.03 1.54,1.56c1.24,1.26 2.47,2.54 3.71,3.81c-16.61,17.34 -41.06,20.17 -63.83,20.73c-1.65,0.06 -3.3,0.13 -4.95,0.23c-14.49,0.85 -14.49,0.85 -19.96,-3.62c-3.04,-2.88 -5.62,-6.08 -8.26,-9.34c-0.99,-0.66 -1.98,-1.32 -3,-2c0,-0.66 0,-1.32 0,-2c-0.99,-0.33 -1.98,-0.66 -3,-1c0,-0.66 0,-1.32 0,-2c1.04,-0.01 1.04,-0.01 2.1,-0.01c6.6,-0.04 13.21,-0.1 19.81,-0.17c3.39,-0.04 6.79,-0.08 10.18,-0.09c20.86,-0.12 38.76,-0.44 55.91,-13.73z" fill="#000000" id="svg_24"/>
  <path d="m926,296c2.31,1.98 4.62,3.96 7,6c1.08,0.73 2.16,1.45 3.28,2.2c4.73,3.62 8.06,6.73 9.35,12.72c0.91,8.58 0.51,17.16 0.18,25.77c-0.05,2.63 -0.1,5.27 -0.14,7.9c-0.09,4.78 -0.2,9.57 -0.37,14.35c-0.03,0.95 -0.06,1.91 -0.1,2.89c-0.2,2.17 -0.2,2.17 -1.2,3.17c-5.94,0 -11.88,0 -18,0c0,-24.75 0,-49.5 0,-75z" fill="#000000" id="svg_25" transform="matrix(1 0 0 1 0 0)"/>
  <path d="m1677,290c24.75,0 49.5,0 75,0c0,5.94 0,11.88 0,18c-3.95,3.95 -18.63,1.93 -24.01,2.06c-2.59,0.09 -5.18,0.2 -7.76,0.35c-22.59,1.3 -22.59,1.3 -31.06,-5.47c-4.53,-4.23 -8.67,-8.81 -12.17,-13.94c0,-0.33 0,-0.66 0,-1z" fill="#000000" id="svg_26" transform="matrix(1 0 0 1 0 0)"/>
  <path d="m1156,439c4.11,1.03 4.5,1.17 6.88,4.25c2,2.5 3.98,4.58 6.5,6.56c0.86,0.72 1.73,1.45 2.62,2.19c0,0.66 0,1.32 0,2c0.66,0 1.32,0 2,0c1.3,2.59 1.12,4.46 1.11,7.37c0,1.12 0,2.24 0,3.39c0,1.22 -0.01,2.43 -0.01,3.69c0,1.24 -0.01,2.48 -0.01,3.75c0,3.3 -0.01,6.6 -0.02,9.9c-0.01,3.36 -0.02,6.73 -0.02,10.09c-0.01,6.6 -0.03,13.21 -0.05,19.81c-6.27,0 -12.54,0 -19,0c0,-24.09 0,-48.18 0,-73z" fill="#000000" id="svg_27" transform="matrix(1 0 0 1 0 0)"/>
  <path d="m1582,290c17.82,0 35.64,0 54,0c0,6.27 0,12.54 0,19c-17.82,0 -35.64,0 -54,0c0,-6.27 0,-12.54 0,-19z" fill="#000000" id="svg_28" transform="matrix(1 0 0 1 0 0)"/>
  <path d="m1236,459c6.27,0 12.54,0 19,0c0,17.49 0,34.98 0,53c-6.27,0 -12.54,0 -19,0c0,-17.49 0,-34.98 0,-53z" fill="#000000" id="svg_29" transform="matrix(1 0 0 1 0 0)"/>
 </g>
</svg>