<?xml version="1.0"?>
<svg width="20" height="20" xmlns="http://www.w3.org/2000/svg" xmlns:svg="http://www.w3.org/2000/svg">
 <g class="layer">
  <title>Layer 1</title>
  <path clip-rule="evenodd" d="m14.11,5.83c0.03,-0.06 0.04,-0.12 0.03,-0.18l0.03,0c-0.1,-2.23 -1.93,-3.98 -4.17,-3.98c-2.23,0 -4.07,1.75 -4.16,3.98c-0.01,0.06 -0.01,0.12 0,0.18l-0.06,0c-1.07,0 -2.21,0.71 -2.54,2.6l-0.65,5.17c-0.53,3.79 1.42,4.73 3.97,4.73l6.91,0c2.54,0 4.43,-1.37 3.96,-4.73l-0.64,-5.17c-0.39,-1.84 -1.5,-2.6 -2.55,-2.6l-0.13,0zm-1.2,0c-0.02,-0.06 -0.03,-0.12 -0.04,-0.18c0,-1.6 -1.3,-2.9 -2.9,-2.9c-1.6,0 -2.9,1.3 -2.9,2.9c0.01,0.06 0.01,0.12 0,0.18l5.84,0zm-5.33,4.29c-0.41,0 -0.74,-0.34 -0.74,-0.75c0,-0.42 0.33,-0.76 0.74,-0.76c0.41,0 0.74,0.34 0.74,0.76c0,0.41 -0.33,0.75 -0.74,0.75zm4.09,-0.75c0,0.41 0.33,0.75 0.73,0.75c0.41,0 0.74,-0.34 0.74,-0.75c0,-0.42 -0.33,-0.76 -0.74,-0.76c-0.4,0 -0.73,0.34 -0.73,0.76z" fill="#000000" fill-rule="evenodd" id="svg_1"/>
 </g>
</svg>