<?xml version="1.0"?>
<svg width="20" height="20" xmlns="http://www.w3.org/2000/svg" xmlns:svg="http://www.w3.org/2000/svg">
 <g class="layer">
  <title>Layer 1</title>
  <path clip-rule="evenodd" d="m14.53,5.2c0.04,0.06 0.1,0.1 0.17,0.1c2,0 3.63,1.63 3.63,3.63l0,4.94c0,2 -1.63,3.63 -3.63,3.63l-9.4,0c-2.01,0 -3.63,-1.63 -3.63,-3.63l0,-4.94c0,-2 1.62,-3.63 3.63,-3.63c0.07,0 0.13,-0.04 0.16,-0.1l0.05,-0.1c0.03,-0.06 0.06,-0.13 0.09,-0.19c0.21,-0.45 0.45,-0.94 0.59,-1.24c0.39,-0.75 1.04,-1.16 1.84,-1.17l3.93,0c0.81,0.01 1.47,0.42 1.85,1.17c0.13,0.27 0.33,0.69 0.52,1.1c0.04,0.08 0.08,0.16 0.12,0.24l0.08,0.19zm-0.6,3.19c0,0.42 0.33,0.75 0.75,0.75c0.41,0 0.75,-0.33 0.75,-0.75c0,-0.41 -0.34,-0.75 -0.75,-0.75c-0.42,0 -0.75,0.34 -0.75,0.75zm-5.37,1.29c0.39,-0.39 0.9,-0.6 1.44,-0.6c0.54,0 1.05,0.21 1.43,0.6c0.39,0.38 0.6,0.89 0.6,1.43c-0.01,1.11 -0.91,2.02 -2.03,2.02c-0.54,0 -1.05,-0.21 -1.43,-0.59c-0.39,-0.38 -0.59,-0.89 -0.59,-1.43l0,-0.01c-0.01,-0.53 0.2,-1.03 0.58,-1.42zm3.75,3.74c-0.59,0.59 -1.41,0.96 -2.31,0.96c-0.87,0 -1.69,-0.34 -2.32,-0.96c-0.61,-0.62 -0.95,-1.44 -0.95,-2.31c-0.01,-0.87 0.33,-1.68 0.95,-2.31c0.62,-0.63 1.45,-0.96 2.32,-0.96c0.88,0 1.7,0.34 2.32,0.95c0.61,0.63 0.96,1.45 0.96,2.32c-0.01,0.9 -0.38,1.72 -0.97,2.31z" fill="#000000" fill-rule="evenodd" id="svg_1"/>
 </g>
</svg>