<?xml version="1.0"?>
<svg width="20" height="20" xmlns="http://www.w3.org/2000/svg" xmlns:svg="http://www.w3.org/2000/svg">
 <g class="layer">
  <title>Layer 1</title>
  <path d="m9.36,6.08l0,-3.35c0,-0.35 0.28,-0.65 0.64,-0.65c0.32,0 0.59,0.25 0.64,0.57l0,0.08l0,3.35l3.99,0c1.98,0 3.61,1.62 3.7,3.65l0,0.18l0,4.19c0,2.04 -1.57,3.72 -3.52,3.81l-0.18,0.01l-9.26,0c-1.99,0 -3.61,-1.62 -3.7,-3.65l0,-0.18l0,-4.19c0,-2.04 1.56,-3.73 3.51,-3.82l0.18,0l4,0l0,5.33l-1.33,-1.38c-0.25,-0.25 -0.66,-0.25 -0.91,0c-0.13,0.13 -0.19,0.31 -0.19,0.48c0,0.13 0.04,0.26 0.12,0.38l0.07,0.08l2.42,2.51c0.12,0.13 0.28,0.2 0.46,0.2c0.14,0 0.28,-0.04 0.39,-0.14l0.06,-0.06l2.43,-2.51c0.25,-0.26 0.25,-0.68 0,-0.94c-0.23,-0.23 -0.59,-0.25 -0.84,-0.06l-0.07,0.06l-1.33,1.38l0,-5.33l-1.28,0z" fill="#000000" id="svg_1"/>
 </g>
</svg>