<?xml version="1.0"?>
<svg width="24" height="24" xmlns="http://www.w3.org/2000/svg" xmlns:svg="http://www.w3.org/2000/svg">
 <g class="layer">
  <title>Layer 1</title>
  <path clip-rule="evenodd" d="m8.88,6.38c0,1.87 -1.54,3.38 -3.44,3.38c-1.9,0 -3.44,-1.51 -3.44,-3.38c0,-1.87 1.54,-3.38 3.44,-3.38c1.9,0 3.44,1.51 3.44,3.38zm11.61,-1.48c0.83,0 1.51,0.66 1.51,1.48c0,0.82 -0.68,1.48 -1.51,1.48l-6.57,0c-0.83,0 -1.51,-0.66 -1.51,-1.48c0,-0.82 0.68,-1.48 1.51,-1.48l6.57,0zm-16.98,11.06l6.57,0c0.84,0 1.51,0.66 1.51,1.48c0,0.82 -0.67,1.48 -1.51,1.48l-6.57,0c-0.83,0 -1.51,-0.66 -1.51,-1.48c0,-0.82 0.68,-1.48 1.51,-1.48zm15.05,4.82c1.9,0 3.44,-1.52 3.44,-3.38c0,-1.87 -1.54,-3.38 -3.44,-3.38c-1.9,0 -3.44,1.51 -3.44,3.38c0,1.86 1.54,3.38 3.44,3.38z" fill="#000000" fill-rule="evenodd" id="svg_1"/>
 </g>
</svg>