<?xml version="1.0" encoding="UTF-8"?>
<svg version="1.1" xmlns="http://www.w3.org/2000/svg" width="200" height="200">
<path d="M0 0 C2.42896491 0.01071745 4.85719041 0.00006277 7.28613281 -0.01269531 C27.72397986 -0.03262278 27.72397986 -0.03262278 34.80175781 5.59667969 C41.29383991 12.21301217 43.05786139 19.36161734 44.43457031 28.26074219 C45.56886475 28.23979492 46.70315918 28.21884766 47.87182617 28.19726562 C52.11534804 28.12438716 56.35881557 28.07876999 60.6027832 28.04101562 C62.43295624 28.02100844 64.26306623 27.99379368 66.09301758 27.95898438 C68.73697544 27.90998216 71.38008196 27.88766458 74.02441406 27.87011719 C75.2343528 27.83914948 75.2343528 27.83914948 76.46873474 27.80755615 C82.94334194 27.8050487 89.02229638 29.31657392 94.03038025 33.63763428 C99.08062651 39.27665187 99.7330369 45.30594418 99.70922852 52.5859375 C99.71433945 53.39980423 99.71945038 54.21367096 99.72471619 55.05220032 C99.73856602 57.73116503 99.7376584 60.40987102 99.73535156 63.08886719 C99.739242 64.96205744 99.74357739 66.83524681 99.74833679 68.70843506 C99.75578984 72.63231262 99.75551508 76.5561002 99.75024414 80.47998047 C99.74446131 85.48760784 99.76135627 90.49486391 99.78458881 95.50242996 C99.79938488 99.37168502 99.80018971 103.24085197 99.79707909 107.11013031 C99.7975897 108.95515425 99.80277817 110.80018346 99.81289101 112.64517975 C99.9266825 136.31536204 99.9266825 136.31536204 93.30957031 143.63574219 C92.79136719 144.24160156 92.27316406 144.84746094 91.73925781 145.47167969 C83.55916292 151.82165165 74.97981461 151.83720789 65.03588867 151.77832031 C63.49090416 151.78374861 61.94592483 151.79087523 60.4009552 151.79956055 C56.22739992 151.81771136 52.05424255 151.81076115 47.8806808 151.7980442 C43.5015439 151.7878754 39.12243972 151.79732045 34.74330139 151.80358887 C27.39220092 151.81085325 20.04126153 151.80130861 12.69018555 151.78222656 C4.20411751 151.760452 -4.28156616 151.76751821 -12.76762491 151.78953218 C-20.06896591 151.80771107 -27.37019151 151.81023261 -34.67154783 151.79977751 C-39.02566954 151.79355727 -43.37961083 151.79266648 -47.73372078 151.80592346 C-51.82725624 151.817518 -55.92029819 151.80939105 -60.01378059 151.78634644 C-61.51171043 151.78107884 -63.00968215 151.78253962 -64.50759506 151.79139709 C-73.63466847 151.84037263 -80.50868548 151.5209373 -87.77246094 145.40136719 C-88.56716797 144.46550781 -88.56716797 144.46550781 -89.37792969 143.51074219 C-90.19197266 142.59035156 -90.19197266 142.59035156 -91.02246094 141.65136719 C-94.9891753 135.5054705 -96.01169034 129.73850031 -95.96948242 122.60083008 C-95.97634567 121.77531143 -95.98320892 120.94979279 -95.99028015 120.09925842 C-96.00845241 117.3937925 -96.00472449 114.68891178 -95.99902344 111.98339844 C-96.00358978 110.08824985 -96.0088967 108.19310293 -96.01490784 106.29795837 C-96.02382011 102.33471938 -96.02143724 98.37168209 -96.01147461 94.40844727 C-95.99998646 89.34685173 -96.02020374 84.28595403 -96.04939175 79.22445011 C-96.06779782 75.31318286 -96.06745253 71.4020815 -96.06175423 67.49078178 C-96.06160156 65.62539122 -96.06760072 63.75998902 -96.0800457 61.89463997 C-96.19840932 41.24696037 -96.19840932 41.24696037 -89.8447113 34.40882874 C-83.81977596 28.63408256 -77.46383088 27.96478438 -69.44824219 28.06542969 C-68.16250809 28.06967453 -68.16250809 28.06967453 -66.85079956 28.07400513 C-64.13053037 28.0851422 -61.41059828 28.11023459 -58.69042969 28.13574219 C-56.83887196 28.14578036 -54.98730905 28.15490475 -53.13574219 28.16308594 C-48.61217608 28.18506031 -44.08885992 28.21954519 -39.56542969 28.26074219 C-39.42137695 26.99834717 -39.27732422 25.73595215 -39.12890625 24.43530273 C-38.25429675 16.77072987 -34.43872737 10.23045561 -28.56542969 5.26074219 C-27.69917969 4.42542969 -27.69917969 4.42542969 -26.81542969 3.57324219 C-18.90759881 -1.03965916 -8.85123402 -0.04649133 0 0 Z M-24.00292969 59.76074219 C-26.82995533 63.08235681 -28.672008 65.90531148 -29.56542969 70.26074219 C-26.86740679 71.01832462 -26.86740679 71.01832462 -23.56542969 70.26074219 C-21.873869 68.44126941 -21.873869 68.44126941 -20.31542969 66.13574219 C-15.31897122 59.11638129 -8.08154279 54.75479712 0.43457031 53.26074219 C9.65253711 52.33460424 17.94419296 53.96168944 25.49707031 59.51074219 C26.45613281 60.37699219 26.45613281 60.37699219 27.43457031 61.26074219 C28.09457031 61.26074219 28.75457031 61.26074219 29.43457031 61.26074219 C29.71300781 61.84210938 29.99144531 62.42347656 30.27832031 63.02246094 C31.37845663 65.15211671 32.60427175 67.08185013 33.93457031 69.07324219 C36.26922296 72.74394975 37.46579191 76.0333455 38.43457031 80.26074219 C35.79457031 80.59074219 33.15457031 80.92074219 30.43457031 81.26074219 C33.94354301 85.4449811 37.51517566 89.45662385 41.43457031 93.26074219 C45.07591081 91.75991942 47.12213217 89.65453656 49.68457031 86.69824219 C50.39097656 85.89257812 51.09738281 85.08691406 51.82519531 84.25683594 C53.53918083 82.55834043 53.53918083 82.55834043 53.43457031 81.26074219 C50.46457031 81.26074219 47.49457031 81.26074219 44.43457031 81.26074219 C44.20769531 79.98199219 43.98082031 78.70324219 43.74707031 77.38574219 C41.49803949 67.43690446 36.34621792 58.48334762 27.97363281 52.50292969 C10.23862715 41.47846671 -9.91567631 44.68357371 -24.00292969 59.76074219 Z M-35.16699219 82.63183594 C-36.1799901 83.64883253 -37.18759251 84.67122493 -38.19042969 85.69824219 C-38.70605469 86.21451172 -39.22167969 86.73078125 -39.75292969 87.26269531 C-42.38295561 89.4045207 -42.38295561 89.4045207 -43.56542969 92.26074219 C-40.59542969 92.26074219 -37.62542969 92.26074219 -34.56542969 92.26074219 C-34.35917969 93.68386719 -34.15292969 95.10699219 -33.94042969 96.57324219 C-31.91504403 106.51732318 -26.57013773 115.02698725 -18.56542969 121.26074219 C-8.39693968 127.5182745 2.56714965 130.31425013 14.40332031 127.57324219 C25.92427587 123.68977402 33.06351065 117.61371414 39.43457031 107.26074219 C39.92957031 105.77574219 39.92957031 105.77574219 40.43457031 104.26074219 C37.10314754 103.75948936 37.10314754 103.75948936 33.43457031 104.26074219 C31.31870946 106.9326598 31.31870946 106.9326598 29.43457031 110.26074219 C23.91048641 116.35216444 17.18704133 119.72602099 9.03222656 120.64355469 C-1.12418203 120.97438233 -8.85088104 119.01097225 -16.56542969 112.26074219 C-17.22542969 112.26074219 -17.88542969 112.26074219 -18.56542969 112.26074219 C-18.81292969 111.72449219 -19.06042969 111.18824219 -19.31542969 110.63574219 C-20.5530503 108.13944832 -20.5530503 108.13944832 -22.50292969 105.63574219 C-25.10954568 101.37037057 -26.31104249 97.06922644 -27.56542969 92.26074219 C-24.92542969 92.26074219 -22.28542969 92.26074219 -19.56542969 92.26074219 C-23.06617951 88.08630855 -26.54493812 83.94619279 -30.56542969 80.26074219 C-32.90572998 80.0362051 -32.90572998 80.0362051 -35.16699219 82.63183594 Z " fill="#000000" transform="translate(97.5654296875,23.7392578125)"/>
</svg>
