<?xml version="1.0"?>
<svg width="46" height="46" xmlns="http://www.w3.org/2000/svg" xmlns:svg="http://www.w3.org/2000/svg">
 <defs>
  <linearGradient id="paint0_linear_2056_2320" x1="0" x2="1.17" y1="0" y2="0.83">
   <stop stop-color="#868CFF"/>
   <stop offset="1" stop-color="#4318FF"/>
  </linearGradient>
 </defs>
 <g class="layer">
  <title>Layer 1</title>
  <rect fill="#F4F7FE" height="40" id="svg_1" rx="20" width="40" x="3" y="3"/>
  <rect height="40" id="svg_2" rx="20" stroke="#E4EAFF" stroke-width="6" width="40" x="3" y="3"/>
  <path d="m24.83,14.67l-7.42,8.9c-0.29,0.35 -0.43,0.53 -0.44,0.67c0,0.13 0.06,0.25 0.16,0.33c0.11,0.1 0.34,0.1 0.79,0.1l6.08,0l-0.83,6.66l7.42,-8.9c0.29,-0.35 0.43,-0.53 0.44,-0.67c0,-0.13 -0.06,-0.25 -0.16,-0.33c-0.11,-0.1 -0.34,-0.1 -0.79,-0.1l-6.08,0l0.83,-6.66z" fill="#000000" id="svg_3" stroke="url(#paint0_linear_2056_2320)" stroke-linecap="round" stroke-linejoin="round" stroke-width="1.67"/>
 </g>
</svg>