<?xml version="1.0"?>
<svg width="20" height="20" xmlns="http://www.w3.org/2000/svg" xmlns:svg="http://www.w3.org/2000/svg">
 <g class="layer">
  <title>Layer 1</title>
  <path d="m7.61,17.31l0,-2.55c0,-0.65 0.53,-1.17 1.19,-1.17l2.39,0c0.32,0 0.62,0.12 0.84,0.34c0.23,0.22 0.35,0.52 0.35,0.83l0,2.55c0,0.27 0.11,0.53 0.3,0.72c0.19,0.2 0.45,0.3 0.72,0.3l1.64,0c0.76,0.01 1.49,-0.29 2.03,-0.83c0.54,-0.53 0.85,-1.26 0.85,-2.02l0,-7.26c0,-0.61 -0.28,-1.19 -0.75,-1.58l-5.56,-4.41c-0.97,-0.77 -2.35,-0.75 -3.29,0.06l-5.43,4.35l-0.81,1.58l0,7.25c0,1.58 1.29,2.86 2.88,2.86l1.6,0c0.57,0 1.03,-0.45 1.03,-1.01l0.02,-0.01z" fill="#000000" id="svg_1"/>
 </g>
</svg>