<?xml version="1.0"?>
<svg width="20" height="20" xmlns="http://www.w3.org/2000/svg" xmlns:svg="http://www.w3.org/2000/svg">
 <g class="layer">
  <title>Layer 1</title>
  <path clip-rule="evenodd" d="m6.39,18.33l7.22,0c2.83,0 4.72,-1.98 4.72,-4.93l0,-6.8c0,-2.95 -1.89,-4.93 -4.72,-4.93l-7.22,0c-2.83,0 -4.72,1.98 -4.72,4.93l0,6.8c0,2.95 1.89,4.93 4.72,4.93zm0.69,-9.16c-1.15,0 -2.08,-0.94 -2.08,-2.09c0,-1.15 0.93,-2.08 2.08,-2.08c1.15,0 2.09,0.93 2.09,2.08c0,1.15 -0.94,2.09 -2.09,2.09zm9.44,3.28c0.28,0.71 0.13,1.57 -0.17,2.28c-0.35,0.84 -1.03,1.48 -1.88,1.76c-0.38,0.12 -0.78,0.18 -1.17,0.18l-7.03,0c-0.69,0 -1.31,-0.17 -1.82,-0.48c-0.32,-0.2 -0.37,-0.65 -0.14,-0.94c0.4,-0.49 0.78,-0.99 1.18,-1.48c0.74,-0.95 1.25,-1.23 1.81,-0.99c0.22,0.1 0.45,0.25 0.69,0.41c0.62,0.43 1.49,1.01 2.64,0.38c0.78,-0.44 1.23,-1.19 1.63,-1.85l0.01,-0.01c0.02,-0.05 0.05,-0.09 0.08,-0.14l0,0l0,0c0.13,-0.22 0.26,-0.44 0.41,-0.64c0.19,-0.25 0.88,-1.03 1.77,-0.47c0.57,0.35 1.05,0.82 1.56,1.33c0.2,0.2 0.33,0.42 0.43,0.66z" fill="#000000" fill-rule="evenodd" id="svg_1"/>
 </g>
</svg>