<?xml version="1.0"?>
<svg width="20" height="20" xmlns="http://www.w3.org/2000/svg" xmlns:svg="http://www.w3.org/2000/svg">
 <g class="layer">
  <title>Layer 1</title>
  <path clip-rule="evenodd" d="m7.02,2.5c0.35,0 0.64,0.28 0.64,0.62c0,0.35 -0.29,0.62 -0.64,0.62l-1.35,0.01c-1.13,0 -2.05,0.9 -2.05,2l0,1.55c0,0.34 -0.28,0.62 -0.63,0.62c-0.35,0 -0.64,-0.28 -0.64,-0.62l0,-1.55c0,-1.79 1.49,-3.25 3.31,-3.25l1.36,0l0,0zm5.98,0l1.33,0c1.83,0 3.32,1.46 3.32,3.26l0,1.54c0,0.35 -0.29,0.62 -0.64,0.62c-0.35,0 -0.63,-0.27 -0.63,-0.62l0,-1.54c0,-1.11 -0.92,-2.02 -2.05,-2.02l-1.33,0c-0.35,0 -0.63,-0.27 -0.63,-0.62c0,-0.34 0.28,-0.62 0.63,-0.62zm-0.7,3.12l-4.6,0c-1.05,0.01 -1.9,0.85 -1.89,1.89l0,1.04c0,0.12 0.1,0.21 0.22,0.22l7.94,0c0.12,0 0.22,-0.1 0.22,-0.22l0,-1.04c0,-0.5 -0.19,-0.98 -0.55,-1.34c-0.35,-0.35 -0.83,-0.55 -1.34,-0.55zm-10.83,4.41l17.06,0c0.35,0 0.64,0.28 0.64,0.63c0,0.34 -0.29,0.62 -0.64,0.62l-0.88,0l0,2.96c0,1.8 -1.49,3.26 -3.32,3.26l-1.33,0c-0.35,0 -0.63,-0.28 -0.63,-0.62c0,-0.35 0.28,-0.62 0.63,-0.62l1.33,0c1.13,0 2.05,-0.91 2.05,-2.02l0,-2.96l-2.19,0l0,0.82c0.01,1.04 -0.83,1.88 -1.89,1.89l-4.6,0c-1.06,-0.01 -1.9,-0.85 -1.89,-1.89l0,-0.82l-2.19,0l0,2.97c0,1.1 0.92,2 2.05,2l1.35,0.01c0.35,0 0.64,0.27 0.64,0.62c0,0.34 -0.29,0.62 -0.64,0.62l-1.36,0c-1.82,0 -3.31,-1.46 -3.31,-3.25l0,-2.97l-0.88,0c-0.35,0 -0.64,-0.28 -0.64,-0.62c0,-0.35 0.29,-0.63 0.64,-0.63z" fill="#000000" fill-rule="evenodd" id="svg_1"/>
 </g>
</svg>