<?xml version="1.0"?>
<svg width="24" height="24" xmlns="http://www.w3.org/2000/svg" xmlns:svg="http://www.w3.org/2000/svg">
 <g class="layer">
  <title>Layer 1</title>
  <path d="m23.66,20.19l-3.97,-3.58c1.28,-1.48 1.97,-3.29 1.97,-5.17c0,-1.67 -0.55,-3.3 -1.57,-4.69c-1.03,-1.39 -2.48,-2.48 -4.19,-3.11c-1.7,-0.64 -3.58,-0.8 -5.39,-0.49c-1.81,0.33 -3.48,1.13 -4.78,2.31c-1.31,1.18 -2.19,2.69 -2.55,4.33c-0.35,1.64 -0.17,3.34 0.54,4.88c0.7,1.54 1.9,2.86 3.44,3.79c1.53,0.93 3.34,1.42 5.18,1.42c2.08,0 4.08,-0.62 5.72,-1.78l3.95,3.59c0.1,0.09 0.23,0.18 0.38,0.23c0.14,0.05 0.29,0.08 0.44,0.08c0.15,0 0.3,-0.03 0.44,-0.08c0.15,-0.05 0.28,-0.14 0.38,-0.23c0.1,-0.09 0.2,-0.21 0.26,-0.35c0.06,-0.13 0.09,-0.26 0.09,-0.4c0,-0.14 -0.03,-0.27 -0.09,-0.4c-0.06,-0.14 -0.15,-0.25 -0.26,-0.35zm-18.33,-8.75c0,-1.26 0.41,-2.48 1.18,-3.51c0.77,-1.04 1.87,-1.86 3.14,-2.33c1.28,-0.49 2.69,-0.61 4.05,-0.36c1.35,0.24 2.6,0.84 3.58,1.73c0.98,0.89 1.64,2.02 1.91,3.24c0.28,1.22 0.14,2.5 -0.4,3.66c-0.52,1.15 -1.42,2.14 -2.58,2.84c-1.14,0.7 -2.5,1.07 -3.88,1.07c-1.85,0 -3.64,-0.66 -4.95,-1.86c-1.32,-1.18 -2.05,-2.8 -2.05,-4.48z" fill="#000000" id="svg_1"/>
 </g>
</svg>