<?xml version="1.0"?>
<svg width="20" height="20" xmlns="http://www.w3.org/2000/svg" xmlns:svg="http://www.w3.org/2000/svg">
 <g class="layer">
  <title>Layer 1</title>
  <path d="m12.79,3.33c-0.17,0.06 -0.29,0.23 -0.29,0.42c0,0.19 0.12,0.36 0.29,0.42l2.21,0.83l0.83,2.21c0.06,0.17 0.23,0.29 0.42,0.29c0.19,0 0.36,-0.12 0.42,-0.29l0.83,-2.21l2.21,-0.83c0.17,-0.06 0.29,-0.23 0.29,-0.42c0,-0.19 -0.12,-0.36 -0.29,-0.42l-2.21,-0.83l-0.83,-2.21c-0.06,-0.17 -0.23,-0.29 -0.42,-0.29c-0.19,0 -0.36,0.12 -0.42,0.29l-0.83,2.21l-2.21,0.83zm-4.78,-0.47c-0.1,-0.22 -0.32,-0.36 -0.56,-0.36c-0.25,0 -0.47,0.14 -0.57,0.36l-2.06,4.46l-4.46,2.06c-0.22,0.1 -0.36,0.32 -0.36,0.57c0,0.24 0.14,0.46 0.36,0.56l4.46,2.06l2.06,4.45c0.1,0.23 0.32,0.37 0.56,0.37c0.24,0 0.47,-0.14 0.57,-0.37l2.06,-4.45l4.45,-2.06c0.23,-0.1 0.37,-0.33 0.37,-0.57c0,-0.24 -0.14,-0.46 -0.37,-0.56l-4.45,-2.06l-2.06,-4.46zm6.99,12.14l-2.21,0.83c-0.17,0.06 -0.29,0.23 -0.29,0.42c0,0.19 0.12,0.36 0.29,0.42l2.21,0.83l0.83,2.21c0.06,0.17 0.23,0.29 0.42,0.29c0.19,0 0.36,-0.12 0.42,-0.29l0.83,-2.21l2.21,-0.83c0.17,-0.06 0.29,-0.23 0.29,-0.42c0,-0.19 -0.12,-0.36 -0.29,-0.42l-2.21,-0.83l-0.83,-2.21c-0.06,-0.17 -0.23,-0.29 -0.42,-0.29c-0.19,0 -0.36,0.12 -0.42,0.29l-0.83,2.21z" fill="#000000" id="svg_1"/>
 </g>
</svg>